<?xml version="1.0" encoding="utf-8"?><svg xmlns="http://www.w3.org/2000/svg" xmlns:xlink="http://www.w3.org/1999/xlink"><symbol viewBox="0 0 490.2 490.2" id="at" xmlns="http://www.w3.org/2000/svg"><path d="M420.95 61.8C376.25 20.6 320.65 0 254.25 0c-69.8 0-129.3 23.4-178.4 70.3s-73.7 105.2-73.7 175c0 66.9 23.4 124.4 70.1 172.6 46.9 48.2 109.9 72.3 189.2 72.3 47.8 0 94.7-9.8 140.7-29.5 15-6.4 22.3-23.6 16.2-38.7-6.3-15.6-24.1-22.8-39.6-16.2-40 17.2-79.2 25.8-117.4 25.8-60.8 0-107.9-18.5-141.3-55.6-33.3-37-50-80.5-50-130.4 0-54.2 17.9-99.4 53.6-135.7 35.6-36.2 79.5-54.4 131.5-54.4 47.9 0 88.4 14.9 121.4 44.7s49.5 67.3 49.5 112.5c0 30.9-7.6 56.7-22.7 77.2-15.1 20.6-30.8 30.8-47.1 30.8-8.8 0-13.2-4.7-13.2-14.2 0-7.7.6-16.7 1.7-27.1l18.6-152.1h-64l-4.1 14.9c-16.3-13.3-34.2-20-53.6-20-30.8 0-57.2 12.3-79.1 36.8-22 24.5-32.9 56.1-32.9 94.7 0 37.7 9.7 68.2 29.2 91.3 19.5 23.2 42.9 34.7 70.3 34.7 24.5 0 45.4-10.3 62.8-30.8 13.1 19.7 32.4 29.5 57.9 29.5 37.5 0 69.9-16.3 97.2-49 27.3-32.6 41-72 41-118.1 0-58.4-22.3-108.3-67.1-149.5zm-147.4 230.1c-11.3 15.2-24.8 22.9-40.5 22.9-10.7 0-19.3-5.6-25.8-16.8-6.6-11.2-9.9-25.1-9.9-41.8 0-20.6 4.6-37.2 13.8-49.8s20.6-19 34.2-19c11.8 0 22.3 4.7 31.5 14.2s13.8 22.1 13.8 37.9c-.1 19.7-5.8 37.1-17.1 52.4z"/></symbol><symbol viewBox="0 0 62 68" id="calendar" xmlns="http://www.w3.org/2000/svg"><path d="M37.815 46.813l.128-.173c.225-.296.459-.583.702-.86l.033-.038a14.865 14.865 0 0 1 5.897-4.036l.198-.073c.304-.107.613-.203.925-.291.142-.04.284-.076.428-.113.264-.066.528-.127.797-.178.226-.042.46-.074.691-.105.204-.03.405-.063.611-.082.451-.043.91-.07 1.373-.07.306 0 .606.024.902.044l.141.011h.028c1.423.107 2.823.422 4.156.935a1.124 1.124 0 0 0 1.459-.645 1.13 1.13 0 0 0 .077-.41V3.4a1.13 1.13 0 0 0-1.127-1.133h-3.382V1.133a1.126 1.126 0 1 0-2.252 0v1.133h-2.254V1.133A1.13 1.13 0 0 0 46.218 0a1.13 1.13 0 0 0-1.127 1.133v1.133h-2.255V1.133C42.836.507 42.332 0 41.709 0s-1.127.507-1.127 1.133v1.133h-2.255V1.133A1.13 1.13 0 0 0 37.2 0a1.13 1.13 0 0 0-1.128 1.133v1.133H20.291V1.133C20.291.507 19.786 0 19.164 0s-1.127.507-1.127 1.133v1.133h-2.254V1.133C15.782.507 15.277 0 14.654 0s-1.127.507-1.127 1.133v1.133h-2.255V1.133C11.272.507 10.768 0 10.146 0S9.018.507 9.018 1.133v1.133H6.764V1.133C6.764.507 6.259 0 5.636 0S4.509.507 4.509 1.133v1.133H1.127A1.132 1.132 0 0 0 0 3.4v53.266A1.13 1.13 0 0 0 1.127 57.8h32.747a1.131 1.131 0 0 0 1.128-1.213l-.009-.131a11.316 11.316 0 0 1-.048-.923c.004-1.122.136-2.239.393-3.331a14.579 14.579 0 0 1 1.117-3.141c.048-.1.092-.2.143-.299.15-.288.313-.566.48-.845.053-.087.104-.177.16-.263.183-.286.375-.567.577-.841zm2.767-13.946h-6.764v-6.8h6.764v6.8zm0-9.067h-6.764V17h6.764v6.8zm9.018 2.266v6.8h-6.764v-6.8H49.6zM42.836 23.8V17H49.6v6.8h-6.764zm6.767 14.733c-.528 0-1.049.03-1.565.079-.225.021-.436.056-.654.084-.276.038-.552.076-.823.127a15.797 15.797 0 0 0-1.369.317c-.339.093-.677.193-1.015.308l-.128.047c-.41.145-.815.295-1.21.468v-4.829h6.764v3.399zm-47.349-34h2.255v1.133c0 .626.504 1.133 1.127 1.133s1.127-.507 1.127-1.133V4.533h2.254v1.133c0 .626.505 1.133 1.127 1.133s1.127-.507 1.127-1.133V4.533h2.255v1.133c0 .626.504 1.133 1.127 1.133s1.127-.507 1.127-1.133V4.533h2.254v1.133c0 .626.505 1.133 1.127 1.133s1.127-.507 1.127-1.133V4.533h15.781v1.133a1.13 1.13 0 0 0 1.128 1.133 1.13 1.13 0 0 0 1.127-1.133V4.533h2.255v1.133c0 .626.504 1.133 1.127 1.133s1.127-.507 1.127-1.133V4.533h2.255v1.133a1.13 1.13 0 0 0 1.127 1.133 1.13 1.13 0 0 0 1.128-1.133V4.533H49.6v1.133a1.13 1.13 0 0 0 1.128 1.133 1.13 1.13 0 0 0 1.127-1.133V4.533h2.255V10.2H2.254V4.533zm30.436 51H2.254V12.466h51.855v26.693a16.66 16.66 0 0 0-2.255-.471V15.867a1.13 1.13 0 0 0-1.127-1.133H5.636a1.13 1.13 0 0 0-1.127 1.133v36.266a1.13 1.13 0 0 0 1.127 1.134h27.222a17.346 17.346 0 0 0-.168 2.266zm-7.89-13.6v-6.8h6.764v6.8H24.8zm6.763 2.267V51H24.8v-6.8h6.763zM24.8 32.867v-6.8h6.764v6.8H24.8zm0-9.067V17h6.764v6.8H24.8zm-9.018 18.133v-6.8h6.764v6.8h-6.764zm6.763 2.267V51h-6.764v-6.8h6.764zm-6.763-11.333v-6.8h6.764v6.8h-6.764zm0-9.067V17h6.764v6.8h-6.764zM6.764 41.933v-6.8h6.764v6.8H6.764zm6.763 2.267V51H6.764v-6.8h6.763zM6.764 32.867v-6.8h6.764v6.8H6.764zm0-9.067V17h6.764v6.8H6.764zm28.242 23.191c-.039.064-.081.126-.117.19a14.01 14.01 0 0 0-.45.88c-.08.163-.161.325-.236.491-.122.273-.237.553-.346.833l-.035.083V44.2h3.214a17.068 17.068 0 0 0-2.03 2.791zm-1.188-5.058v-6.8h6.764v6.046c-.388.247-.763.51-1.128.786v-.032h-5.636zM49.6 43.066c-6.848 0-12.399 5.582-12.399 12.467S42.752 68 49.6 68C56.448 68 62 62.418 62 55.533c-.008-6.882-5.555-12.459-12.4-12.467zm0 22.667c-5.603 0-10.146-4.567-10.146-10.2 0-5.634 4.543-10.2 10.146-10.2 5.604 0 10.146 4.566 10.146 10.2-.007 5.631-4.546 10.194-10.146 10.2zm4.839-16.668l-4.84 4.865-2.585-2.599a1.123 1.123 0 0 0-1.594.027 1.138 1.138 0 0 0 0 1.575l3.382 3.399c.44.443 1.154.443 1.594 0l5.637-5.666c.433-.45.42-1.168-.027-1.603a1.126 1.126 0 0 0-1.567.002z"/></symbol><symbol viewBox="0 0 512 512" id="card-payment" xmlns="http://www.w3.org/2000/svg"><path d="M370 246c-5.52 0-10 4.48-10 10s4.48 10 10 10 10-4.48 10-10-4.48-10-10-10zM270 66H70c-5.523 0-10 4.477-10 10v100c0 5.523 4.477 10 10 10h200c5.523 0 10-4.477 10-10V76c0-5.523-4.477-10-10-10zm-10 100H80V86h180zm0 0"/><path d="M230 146c5.523 0 10-4.477 10-10v-20c0-5.523-4.477-10-10-10s-10 4.477-10 10v20c0 5.523 4.477 10 10 10zm-40 0c5.523 0 10-4.477 10-10v-20c0-5.523-4.477-10-10-10s-10 4.477-10 10v20c0 5.523 4.477 10 10 10zm0 0"/><path d="M482 66H340V50c0-27.57-22.43-50-50-50H50C22.43 0 0 22.43 0 50v412c0 27.57 22.43 50 50 50h240c27.57 0 50-22.43 50-50V326h142c16.543 0 30-13.457 30-30V96c0-16.543-13.457-30-30-30zm-142 80h152v40H340zm152-50v30H340V86h142c5.516 0 10 4.484 10 10zM320 462c0 16.543-13.457 30-30 30H50c-16.543 0-30-13.457-30-30V50c0-16.543 13.457-30 30-30h240c16.543 0 30 13.457 30 30zm162-156H340V206h152v90c0 5.516-4.484 10-10 10zm0 0"/><path d="M462 246h-52c-5.523 0-10 4.477-10 10s4.477 10 10 10h52c5.523 0 10-4.477 10-10s-4.477-10-10-10zm-352-20H70c-5.523 0-10 4.477-10 10v40c0 5.523 4.477 10 10 10h40c5.523 0 10-4.477 10-10v-40c0-5.523-4.477-10-10-10zm-10 40H80v-20h20zm10 40H70c-5.523 0-10 4.477-10 10v40c0 5.523 4.477 10 10 10h40c5.523 0 10-4.477 10-10v-40c0-5.523-4.477-10-10-10zm-10 40H80v-20h20zm10 40H70c-5.523 0-10 4.477-10 10v40c0 5.523 4.477 10 10 10h40c5.523 0 10-4.477 10-10v-40c0-5.523-4.477-10-10-10zm-10 40H80v-20h20zm90-200h-40c-5.523 0-10 4.477-10 10v40c0 5.523 4.477 10 10 10h40c5.523 0 10-4.477 10-10v-40c0-5.523-4.477-10-10-10zm-10 40h-20v-20h20zm10 40h-40c-5.523 0-10 4.477-10 10v40c0 5.523 4.477 10 10 10h40c5.523 0 10-4.477 10-10v-40c0-5.523-4.477-10-10-10zm-10 40h-20v-20h20zm10 40h-40c-5.523 0-10 4.477-10 10v40c0 5.523 4.477 10 10 10h40c5.523 0 10-4.477 10-10v-40c0-5.523-4.477-10-10-10zm-10 40h-20v-20h20zm90-200h-40c-5.523 0-10 4.477-10 10v40c0 5.523 4.477 10 10 10h40c5.523 0 10-4.477 10-10v-40c0-5.523-4.477-10-10-10zm-10 40h-20v-20h20zm10 40h-40c-5.523 0-10 4.477-10 10v40c0 5.523 4.477 10 10 10h40c5.523 0 10-4.477 10-10v-40c0-5.523-4.477-10-10-10zm-10 40h-20v-20h20zm10 40h-40c-5.523 0-10 4.477-10 10v40c0 5.523 4.477 10 10 10h40c5.523 0 10-4.477 10-10v-40c0-5.523-4.477-10-10-10zm-10 40h-20v-20h20zm0 0"/></symbol><symbol viewBox="0 0 31.006 29.007" id="cart" xmlns="http://www.w3.org/2000/svg"><path d="M30.814 5.515a.998.998 0 0 0-.804-.406H7.627a.889.889 0 0 0-.128.008l-.922-2.64a.995.995 0 0 0-.576-.596L1.358.068A.997.997 0 0 0 .069.627a.986.986 0 0 0 .562 1.282l4.216 1.647 5.162 14.787a.824.824 0 0 0-.51.496l-1.492 4.12c-.091.253-.053.533.103.753s.408.35.679.35h.766a2.94 2.94 0 0 0-.766 1.979 2.979 2.979 0 0 0 2.984 2.967 2.98 2.98 0 0 0 2.984-2.967c0-.761-.292-1.453-.767-1.979h6.507a2.941 2.941 0 0 0-.767 1.979 2.98 2.98 0 0 0 2.984 2.967c1.646 0 2.985-1.331 2.985-2.967 0-.761-.292-1.453-.767-1.979h.932c.458 0 .829-.368.829-.823s-.371-.824-.829-.824H9.968l.924-2.552c.119.05.248.079.383.079h14.591a.992.992 0 0 0 .947-.687L30.958 6.4a.983.983 0 0 0-.144-.885zM11.772 27.359a1.324 1.324 0 0 1-1.327-1.318c0-.728.595-1.319 1.327-1.319.73 0 1.326.592 1.326 1.319a1.323 1.323 0 0 1-1.326 1.318zm10.943 0a1.324 1.324 0 0 1-1.326-1.318c0-.728.595-1.319 1.326-1.319.732 0 1.327.592 1.327 1.319 0 .726-.595 1.318-1.327 1.318zM27.93 9.312h-5.076V7.087h5.794l-.718 2.225zm-1.462 4.532h-3.614V11.29h4.438l-.824 2.554zm-10.192 0V11.29h4.588v2.555h-4.588zm4.588 1.978v2.143h-4.588v-2.143h4.588zM9.653 11.29h4.633v2.555h-3.742l-.891-2.555zm6.623-1.978V7.087h4.588v2.225h-4.588zm-1.99-2.225v2.225H8.962l-.776-2.225h6.1zm-3.051 8.735h3.051v2.143h-2.304l-.747-2.143zm11.619 2.142v-2.143h2.978l-.69 2.143h-2.288z"/></symbol><symbol viewBox="0 0 6 4" id="chev-down" xmlns="http://www.w3.org/2000/svg"><path d="M2.999 2.118L5.081 0 6 .934 2.999 4 0 .934.918 0l2.081 2.118z"/></symbol><symbol viewBox="0 0 9.005 14.972" id="chev-left" xmlns="http://www.w3.org/2000/svg"><path d="M.324 6.745L7.116.307a1.15 1.15 0 0 1 1.564 0c.433.41.433 1.074 0 1.483L2.67 7.486l6.01 5.696c.432.409.432 1.073 0 1.482s-1.132.409-1.564 0L.324 8.228A1.018 1.018 0 0 1 0 7.486c0-.268.108-.536.324-.741z"/></symbol><symbol viewBox="0 0 9.005 14.973" id="chev-right" xmlns="http://www.w3.org/2000/svg"><path d="M8.681 8.228l-6.792 6.438c-.432.41-1.132.41-1.564 0a1.01 1.01 0 0 1 0-1.482l6.01-5.696L.324 1.79a1.01 1.01 0 0 1 0-1.483 1.15 1.15 0 0 1 1.564 0l6.793 6.438c.216.205.324.473.324.741s-.109.536-.324.742z"/></symbol><symbol viewBox="0 0 6 4" id="chev-up" xmlns="http://www.w3.org/2000/svg"><path d="M2.999 1.882L5.081 4 6 3.067 2.999 0 0 3.067.918 4l2.081-2.118z"/></symbol><symbol viewBox="0 0 12.024 11.993" id="close" xmlns="http://www.w3.org/2000/svg"><path d="M7.438 6.012L11.73 1.72A1.007 1.007 0 1 0 10.305.295L6.013 4.587 1.721.295A1.007 1.007 0 1 0 .296 1.72l4.292 4.292-4.26 4.26a1.008 1.008 0 1 0 1.425 1.426l4.26-4.26 4.26 4.26a1.008 1.008 0 1 0 1.426-1.426l-4.261-4.26z"/></symbol><symbol viewBox="0 0 475.082 475.082" id="closed-folder" xmlns="http://www.w3.org/2000/svg"><path d="M456.239 128.475c-12.56-12.562-27.597-18.842-45.11-18.842h-191.86v-9.136c0-17.511-6.283-32.548-18.843-45.107-12.562-12.562-27.6-18.846-45.111-18.846H63.953c-17.515 0-32.551 6.283-45.111 18.846C6.28 67.949 0 82.986 0 100.497v274.088c0 17.508 6.28 32.545 18.842 45.104 12.562 12.565 27.6 18.849 45.111 18.849h347.175c17.514 0 32.551-6.283 45.11-18.849 12.566-12.56 18.843-27.597 18.843-45.104V173.59c.001-17.512-6.276-32.548-18.842-45.115z"/></symbol><symbol viewBox="0 0 512 512" id="coins" xmlns="http://www.w3.org/2000/svg"><path d="M256.003 0C142.053 0 56.91 45.045 56.91 85.321c0 40.276 85.143 85.321 199.093 85.321 113.948 0 199.089-45.045 199.089-85.321C455.092 45.045 369.95 0 256.003 0zM429.61 418.778c-46.847 23.43-108.503 36.33-173.607 36.33-65.109 0-126.769-12.901-173.618-36.328-9.226-4.616-17.716-9.567-25.476-14.813v22.71c0 40.276 85.143 85.323 199.093 85.323 113.948 0 199.089-45.047 199.089-85.323v-22.711c-7.761 5.245-16.252 10.198-25.481 14.812zm0-113.782c-46.847 23.426-108.503 36.328-173.607 36.328-65.109 0-126.769-12.903-173.618-36.328-9.226-4.616-17.716-9.567-25.476-14.813v22.709c0 40.276 85.143 85.323 199.093 85.323 113.948 0 199.089-45.047 199.089-85.323v-22.713c-7.761 5.245-16.252 10.201-25.481 14.817zm0-113.783c-46.847 23.422-108.503 36.322-173.607 36.322-65.109 0-126.769-12.901-173.618-36.324-9.226-4.616-17.716-9.569-25.476-14.813v22.706c0 40.278 85.143 85.327 199.093 85.327 113.948 0 199.089-45.049 199.089-85.327v-22.708c-7.761 5.246-16.252 10.201-25.481 14.817z"/></symbol><symbol viewBox="0 0 512 512" id="contract" xmlns="http://www.w3.org/2000/svg"><path d="M498.791 161.127c-17.545-17.546-46.094-17.545-63.645.004l-45.128 45.166V87.426c0-12.02-4.681-23.32-13.181-31.819L334.412 13.18C325.913 4.68 314.612 0 302.592 0H45.018c-24.813 0-45 20.187-45 45v422c0 24.813 20.187 45 45 45h300c24.813 0 45-20.187 45-45V333.631L498.79 224.767c17.587-17.586 17.591-46.052.001-63.64zM300.019 30c2.834 0 8.295-.491 13.18 4.393l42.426 42.427c4.76 4.761 4.394 9.978 4.394 13.18h-60V30zm59.999 437c0 8.271-6.728 15-15 15h-300c-8.271 0-15-6.729-15-15V45c0-8.271 6.729-15 15-15h225v75c0 8.284 6.716 15 15 15h75v116.323l-44.256 44.293-21.203 21.204a15 15 0 0 0-3.624 5.863l-21.214 63.64a14.999 14.999 0 1 0 18.974 18.974l63.64-21.213a14.988 14.988 0 0 0 5.863-3.624l1.82-1.82V467zm-33.64-154.573l21.213 21.213-8.103 8.103-31.819 10.606 10.606-31.82 8.103-8.102zm42.422-.005l-21.213-21.213 72.105-72.166 21.213 21.213-72.105 72.166zm108.773-108.864l-15.463 15.476-21.213-21.213 15.468-15.481c5.852-5.849 15.366-5.848 21.214 0 5.847 5.85 5.878 15.333-.006 21.218z"/><path d="M285.018 150h-210c-8.284 0-15 6.716-15 15s6.716 15 15 15h210c8.284 0 15-6.716 15-15s-6.716-15-15-15zm-60 60h-150c-8.284 0-15 6.716-15 15s6.716 15 15 15h150c8.284 0 15-6.716 15-15s-6.716-15-15-15zm0 60h-150c-8.284 0-15 6.716-15 15s6.716 15 15 15h150c8.284 0 15-6.716 15-15s-6.716-15-15-15zm0 60h-150c-8.284 0-15 6.716-15 15s6.716 15 15 15h150c8.284 0 15-6.716 15-15s-6.716-15-15-15zm60 92h-90c-8.284 0-15 6.716-15 15s6.716 15 15 15h90c8.284 0 15-6.716 15-15s-6.716-15-15-15z"/></symbol><symbol viewBox="0 0 512 512" id="delivery-man" xmlns="http://www.w3.org/2000/svg"><path d="M315.743 85.333V128c0 32.939-26.795 59.733-59.733 59.733S196.277 160.939 196.277 128V85.333H179.21V128c0 42.342 34.458 76.8 76.8 76.8 42.351 0 76.8-34.458 76.8-76.8V85.333h-17.067z"/><path d="M495.882 437.743l-45.926-183.876c-4.881-18.876-21.871-31.718-40.713-31.974l-102.042-7.919V179.2h-17.067v42.667c0 4.454 3.43 8.158 7.876 8.508l110.592 8.559h.051c11.674 0 21.862 7.893 24.772 19.132l45.909 183.825a42.918 42.918 0 0 1 1.28 10.377c-.009 23.526-19.149 42.667-42.675 42.667V512c32.93 0 59.733-26.795 59.742-59.733a59.336 59.336 0 0 0-1.799-14.524zM204.81 179.2v34.773l-101.359 7.893h-.085c-19.447 0-36.437 13.15-41.327 32.068l-45.901 183.8c-3.883 15.479-1.51 31.539 6.69 45.227 8.192 13.687 21.231 23.364 36.702 27.238a59.689 59.689 0 0 0 14.549 1.8v-17.067c-3.499 0-6.989-.435-10.385-1.289-11.059-2.773-20.369-9.677-26.223-19.456-5.854-9.779-7.552-21.248-4.779-32.316l45.892-183.74c2.927-11.324 13.141-19.226 25.515-19.226l109.909-8.533c4.437-.341 7.868-4.053 7.868-8.508V179.2H204.81zM290.143 0h-68.267C198.35 0 179.21 19.14 179.21 42.667v51.2a8.536 8.536 0 0 0 8.533 8.533h136.533a8.536 8.536 0 0 0 8.533-8.533v-51.2C332.81 19.14 313.67 0 290.143 0zm25.6 85.333H196.277V42.667c0-14.114 11.486-25.6 25.6-25.6h68.267c14.114 0 25.6 11.486 25.6 25.6v42.666z"/><path d="M290.143 51.2h-68.267c-23.526 0-42.667 19.14-42.667 42.667a8.536 8.536 0 0 0 8.533 8.533h136.533a8.536 8.536 0 0 0 8.533-8.533C332.81 70.34 313.67 51.2 290.143 51.2zm-92.399 34.133c3.516-9.933 13.005-17.067 24.132-17.067h68.267c11.127 0 20.617 7.134 24.141 17.067h-116.54z"/><path d="M256.01 128V93.867h-17.067v42.667a8.536 8.536 0 0 0 8.533 8.533h17.067V128h-8.533zm-76.8 332.8h-68.267v-17.067c0-14.114-11.486-25.6-25.6-25.6s-25.6 11.486-25.6 25.6v59.733a8.53 8.53 0 0 0 8.533 8.533h76.8c23.526 0 42.667-19.14 42.667-42.667a8.53 8.53 0 0 0-8.533-8.532zm-34.133 34.133H76.81v-51.2c0-4.71 3.831-8.533 8.533-8.533s8.533 3.823 8.533 8.533v25.6a8.53 8.53 0 0 0 8.533 8.533h66.807c-3.523 9.933-13.012 17.067-24.139 17.067zm-102.409-128h59.733V384H42.668zm366.934 0h59.733V384h-59.733z"/><path d="M409.61 256h-307.2a8.536 8.536 0 0 0-8.533 8.533v204.8a8.53 8.53 0 0 0 8.533 8.533h307.2a8.53 8.53 0 0 0 8.533-8.533v-204.8A8.53 8.53 0 0 0 409.61 256zm-8.533 204.8H110.943V273.067h290.133V460.8z"/><path d="M366.935 426.667h17.067v17.067h-17.067zm-34.134 0h17.067v17.067h-17.067zm-40.166-210.833l-36.625 36.634-36.634-36.634L207.31 227.9l42.667 42.667c1.596 1.604 3.772 2.5 6.033 2.5s4.437-.896 6.033-2.5l42.658-42.667-12.066-12.066z"/><path d="M426.677 418.133c-14.114 0-25.6 11.486-25.6 25.6V460.8H332.81a8.525 8.525 0 0 0-8.533 8.533c0 23.526 19.14 42.667 42.667 42.667h76.8a8.53 8.53 0 0 0 8.533-8.533v-59.733c0-14.115-11.486-25.601-25.6-25.601zm8.533 76.8h-68.267c-11.127 0-20.617-7.134-24.141-17.067h66.807a8.525 8.525 0 0 0 8.533-8.533v-25.6c0-4.71 3.823-8.533 8.533-8.533s8.533 3.823 8.533 8.533v51.2zm-332.809-179.2h307.2V332.8h-307.2z"/><path d="M290.143 256h-68.267a8.536 8.536 0 0 0-8.533 8.533v110.933a8.53 8.53 0 0 0 8.533 8.533h68.267a8.53 8.53 0 0 0 8.533-8.533V264.533a8.53 8.53 0 0 0-8.533-8.533zm-8.533 110.933h-51.2v-93.867h51.2v93.867z"/></symbol><symbol viewBox="0 0 409.602 304" id="delivery-truck" xmlns="http://www.w3.org/2000/svg"><path d="M345.602 240c-8.844 0-16 7.16-16 16s7.156 16 16 16c8.84 0 16-7.16 16-16s-7.161-16-16-16zm-8-64a8 8 0 0 0 0 16c4.414 0 8-3.586 8-8 0-4.418-3.586-8-8-8zm-236.801 64c-8.84 0-16 7.16-16 16s7.16 16 16 16 16-7.16 16-16-7.16-16-16-16zm0 0"/><path d="M375.977 144.511L362.18 89.336c4.906-4.692 7.422-10.91 7.422-17.336 0-13.235-10.766-24-24-24h-64V24c0-13.235-10.766-24-24-24H24C10.766 0 0 10.765 0 24v208c0 13.233 10.766 24 24 24h28.801c0 26.469 21.531 48 48 48s48-21.531 48-48h148.801c0 26.469 21.531 48 48 48s48-21.531 48-48c0-.457-.023-.91-.035-1.367 9.328-3.289 16.035-12.192 16.035-22.633v-48c0-19.887-14.59-36.426-33.625-39.489zM347.352 96l12 48h-66.438l18.344-18.344c3.125-3.125 3.125-8.187 0-11.312s-8.188-3.125-11.313 0l-18.344 18.339V96h65.751zm6.25-24c0 4.414-3.586 8-8 8h-64V64h64c4.41 0 8 3.586 8 8zM100.801 288c-17.645 0-32-14.356-32-32 0-17.887 14.613-32 32-32 17.426 0 32 14.151 32 32 0 17.644-14.356 32-32 32zm45.254-48c-6.684-18.879-24.766-32-45.254-32-20.496 0-38.59 13.129-45.258 32H24c-4.414 0-8-3.59-8-8V24c0-4.414 3.586-8 8-8h233.602c4.41 0 8 3.586 8 8v216H146.055zm199.547 48c-17.645 0-32-14.356-32-32 0-17.887 14.613-32 32-32 17.422 0 32 14.151 32 32 0 17.644-14.36 32-32 32zm44.683-49.528C383.188 220.414 365.531 208 345.602 208c-20.5 0-38.59 13.129-45.258 32h-18.742v-80h88c10.426 0 19.32 6.687 22.625 16h-22.625c-4.422 0-8 3.582-8 8s3.578 8 8 8h24v40c0 2.66-1.313 5.015-3.317 6.472zm0 0"/><path d="M140.801 48c-39.699 0-72 32.301-72 72s32.301 72 72 72 72-32.301 72-72-32.301-72-72-72zm0 128c-30.879 0-56-25.121-56-56s25.121-56 56-56 56 25.121 56 56-25.121 56-56 56zm0 0"/><path d="M172.801 112h-24V88a8 8 0 0 0-16 0v32a8 8 0 0 0 8 8h32a8 8 0 0 0 0-16zm0 0"/></symbol><symbol viewBox="0 0 512.003 512.003" id="discount" xmlns="http://www.w3.org/2000/svg"><path d="M477.958 262.633a15.004 15.004 0 0 1 0-13.263l19.096-39.065c10.632-21.751 2.208-47.676-19.178-59.023l-38.41-20.38a15.005 15.005 0 0 1-7.796-10.729l-7.512-42.829c-4.183-23.846-26.241-39.87-50.208-36.479l-43.053 6.09a15.004 15.004 0 0 1-12.613-4.099l-31.251-30.232c-17.401-16.834-44.661-16.835-62.061 0L193.72 42.859a15.01 15.01 0 0 1-12.613 4.099l-43.053-6.09c-23.975-3.393-46.025 12.633-50.208 36.479l-7.512 42.827a15.008 15.008 0 0 1-7.795 10.73l-38.41 20.38c-21.386 11.346-29.81 37.273-19.178 59.024l19.095 39.064a15.004 15.004 0 0 1 0 13.263L14.95 301.699c-10.632 21.751-2.208 47.676 19.178 59.023l38.41 20.38a15.005 15.005 0 0 1 7.796 10.729l7.512 42.829c3.808 21.708 22.422 36.932 43.815 36.93 2.107 0 4.245-.148 6.394-.452l43.053-6.09a15 15 0 0 1 12.613 4.099l31.251 30.232c8.702 8.418 19.864 12.626 31.03 12.625 11.163-.001 22.332-4.209 31.03-12.625l31.252-30.232c3.372-3.261 7.968-4.751 12.613-4.099l43.053 6.09c23.978 3.392 46.025-12.633 50.208-36.479l7.513-42.827a15.008 15.008 0 0 1 7.795-10.73l38.41-20.38c21.386-11.346 29.81-37.273 19.178-59.024l-19.096-39.065zm-13.923 72.002l-38.41 20.38c-12.246 6.499-20.645 18.057-23.04 31.713l-7.512 42.828a15.038 15.038 0 0 1-16.987 12.342l-43.053-6.09c-13.73-1.945-27.316 2.474-37.281 12.113L266.5 478.152a15.04 15.04 0 0 1-20.997 0l-31.251-30.232c-8.422-8.147-19.432-12.562-30.926-12.562-2.106 0-4.229.148-6.355.449l-43.053 6.09a15.042 15.042 0 0 1-16.987-12.342l-7.513-42.829c-2.396-13.656-10.794-25.215-23.041-31.712l-38.41-20.38a15.037 15.037 0 0 1-6.489-19.969L60.574 275.6c6.088-12.456 6.088-26.742 0-39.198l-19.096-39.065a15.037 15.037 0 0 1 6.489-19.969l38.41-20.38c12.246-6.499 20.645-18.057 23.04-31.713l7.512-42.828a15.038 15.038 0 0 1 16.987-12.342l43.053 6.09c13.725 1.943 27.316-2.474 37.281-12.113l31.252-30.232a15.04 15.04 0 0 1 20.997 0l31.251 30.232c9.965 9.64 23.554 14.056 37.281 12.113l43.053-6.09a15.04 15.04 0 0 1 16.987 12.342l7.512 42.829c2.396 13.656 10.794 25.215 23.041 31.712l38.41 20.38a15.037 15.037 0 0 1 6.489 19.969l-19.096 39.064c-6.088 12.455-6.088 26.743 0 39.198l19.096 39.064a15.039 15.039 0 0 1-6.488 19.972z"/><path d="M363.886 148.116c-5.765-5.766-15.115-5.766-20.881 0l-194.889 194.89c-5.766 5.766-5.766 15.115 0 20.881a14.72 14.72 0 0 0 10.44 4.325c3.778 0 7.558-1.441 10.44-4.325l194.889-194.889c5.768-5.767 5.768-15.115.001-20.882zm-166.945-25c-29.852 0-54.139 24.287-54.139 54.139s24.287 54.139 54.139 54.139 54.139-24.287 54.139-54.139-24.287-54.139-54.139-54.139zm0 78.747c-13.569 0-24.608-11.039-24.608-24.609 0-13.569 11.039-24.608 24.608-24.608s24.609 11.039 24.609 24.608c-.001 13.57-11.04 24.609-24.609 24.609zm118.12 78.747c-29.852 0-54.139 24.287-54.139 54.139s24.287 54.139 54.139 54.139c29.852 0 54.139-24.287 54.139-54.139s-24.287-54.139-54.139-54.139zm0 78.747c-13.569 0-24.609-11.039-24.609-24.608s11.039-24.608 24.609-24.608c13.569 0 24.608 11.039 24.608 24.608s-11.039 24.608-24.608 24.608z"/></symbol><symbol viewBox="0 0 22 12" id="enter" xmlns="http://www.w3.org/2000/svg"><path d="M6.137 0l1.4 1.37-3.762 3.677H20.02V1.092H22v5.893H3.808l3.729 3.646L6.137 12 0 6l6.137-6z"/></symbol><symbol viewBox="0 0 358.398 409.602" id="excel" xmlns="http://www.w3.org/2000/svg"><path d="M271.609 153.602h-54.113l-38.293 56.41-38.297-56.41H86.789l64.867 96.984-73.191 107.812H183.36V321.77h-24.222l20.062-29.996 44.559 66.625h56.18l-73.191-107.813 64.861-96.984zm64.164-73.829l-57.145-57.144C266.184 10.184 241.602 0 224 0H32C14.398 0 0 14.398 0 32v345.602c0 17.598 14.398 32 32 32h294.398c17.602 0 32-14.402 32-32V134.398c0-17.597-10.179-42.179-22.625-54.625zm-18.101 18.102c1.25 1.25 2.5 2.789 3.711 4.523H256V37.02c1.734 1.21 3.273 2.457 4.527 3.71l57.145 57.145zm15.129 279.727c0 3.469-2.934 6.398-6.402 6.398H32c-3.469 0-6.398-2.93-6.398-6.398V32c0-3.469 2.929-6.398 6.398-6.398h192c1.934 0 4.102.242 6.398.679V128h101.719c.438 2.297.684 4.465.684 6.398v243.204zm0 0"/></symbol><symbol viewBox="0 0 475.082 475.082" id="folder-closed" xmlns="http://www.w3.org/2000/svg"><path d="M456.239 128.475c-12.56-12.562-27.597-18.842-45.11-18.842h-191.86v-9.136c0-17.511-6.283-32.548-18.843-45.107-12.562-12.562-27.6-18.846-45.111-18.846H63.953c-17.515 0-32.551 6.283-45.111 18.846C6.28 67.949 0 82.986 0 100.497v274.088c0 17.508 6.28 32.545 18.842 45.104 12.562 12.565 27.6 18.849 45.111 18.849h347.175c17.514 0 32.551-6.283 45.11-18.849 12.566-12.56 18.843-27.597 18.843-45.104V173.59c.001-17.512-6.276-32.548-18.842-45.115z"/></symbol><symbol viewBox="0 0 270.629 409.602" id="fuel" xmlns="http://www.w3.org/2000/svg"><path d="M270.609 237.188c-.223-3.074-5.801-75.816-38.094-117.335-32.641-41.965-93.324-53.438-95.891-53.906a7.31 7.31 0 0 0-1.313-.118h-32.914V7.313A7.312 7.312 0 0 0 95.085 0H43.867c-12.09 0-21.926 9.844-21.926 21.942 0 12.101 9.836 21.945 21.926 21.945h7.332v21.941H29.316C13.152 65.828 0 78.969 0 95.121v285.188c0 16.152 13.121 29.293 29.254 29.293h212.121c16.133 0 29.254-13.125 29.254-29.254V237.715a7.71 7.71 0 0 0-.02-.527zM43.867 29.258c-4.094 0-7.297-3.215-7.297-7.316 0-4.032 3.274-7.313 7.297-7.313h43.906v51.199H65.828V36.571a7.311 7.311 0 0 0-7.312-7.313H43.867zM256 380.348c0 8.063-6.563 14.625-14.625 14.625H29.254c-8.063 0-14.625-6.578-14.625-14.664V95.121c0-8.086 6.59-14.664 14.691-14.664h105.285c6.219 1.266 58.735 12.856 86.364 48.375C249.645 165.707 255.625 233.402 256 238v142.348zm0 0"/><path d="M117.027 219.43c-40.328 0-73.14 32.809-73.14 73.141s32.812 73.145 73.14 73.145c40.333 0 73.145-32.813 73.145-73.145s-32.813-73.141-73.145-73.141zm0 131.656c-32.261 0-58.511-26.25-58.511-58.516s26.25-58.512 58.511-58.512c32.266 0 58.516 26.246 58.516 58.512s-26.25 58.516-58.516 58.516zm0 0"/><path d="M122.645 244c-1.391-1.664-3.45-2.629-5.618-2.629s-4.222.965-5.613 2.629c-5.168 6.191-30.957 37.98-30.957 55.887 0 20.164 16.406 36.57 36.57 36.57 20.168 0 36.575-16.406 36.575-36.57 0-17.907-25.79-49.696-30.957-55.887zm-5.618 77.828c-12.097 0-21.941-9.844-21.941-21.941 0-7.852 11.48-25.816 21.941-39.477 10.465 13.66 21.946 31.625 21.946 39.477 0 12.097-9.844 21.941-21.946 21.941zM223.68 176.906l-102.398-73.144a7.31 7.31 0 0 0-7.597-.551 7.31 7.31 0 0 0-3.969 6.504v43.887a7.31 7.31 0 0 0 3.062 5.949l102.399 73.144a7.332 7.332 0 0 0 4.254 1.363c1.145 0 2.293-.27 3.344-.813a7.31 7.31 0 0 0 3.969-6.504V182.86a7.321 7.321 0 0 0-3.064-5.954zm-11.567 35.625l-87.77-62.695V123.93l87.77 62.691v25.91zm0 0"/></symbol><symbol viewBox="0 0 409.92 369.96" id="hammer" xmlns="http://www.w3.org/2000/svg"><defs><path id="ata" d="M0 0h409.92v369.96H0z"/></defs><clipPath id="atb"><use xlink:href="#ata" overflow="visible"/></clipPath><path clip-path="url(#atb)" d="M397.527 35.678l-23.363-23.363C358.926-2.923 333.25-3.81 316.93 10.338l-41.066 35.594a6.58 6.58 0 0 0-1.332 1.59l-39.977 66.582-25.664 8.559a6.587 6.587 0 0 0-4.332 4.738 6.589 6.589 0 0 0 1.752 6.18l69.95 69.949a6.595 6.595 0 0 0 10.918-2.578l8.559-25.676 67.563-40.797a6.554 6.554 0 0 0 1.586-1.336l34.75-40.273c14.07-16.305 13.121-41.961-2.11-57.192zm-7.875 48.575l-34.066 39.476-68.746 41.512a6.582 6.582 0 0 0-2.848 3.562l-5.949 17.856-15.766-15.762c0-.004-.004-.008-.008-.012l-23.316-23.316s-.004-.004-.008-.004l-15.762-15.766 17.855-5.953a6.601 6.601 0 0 0 3.57-2.859l40.688-67.777 40.27-34.907c11.203-9.711 28.82-9.113 39.27 1.336l23.363 23.367c10.457 10.454 11.106 28.059 1.453 39.247zm0 0"/><path d="M365.691 324.003L165.145 123.456l4.66-4.664a6.597 6.597 0 0 0 1.933-4.758c-.004-.27-.265-26.953 8.547-43.426 9.172-17.152 36.305-44.383 36.578-44.656a6.602 6.602 0 0 0 1.457-7.121 6.6 6.6 0 0 0-5.977-4.137c-.84-.016-20.934-.348-40.824 9.598-19.387 9.691-51.645 41.839-53.008 43.203L57.89 128.116a6.597 6.597 0 0 0-1.934 4.664c0 1.75.695 3.43 1.934 4.664l4.66 4.664-23.317 23.313-4.66-4.661a6.6 6.6 0 0 0-9.328 0L1.93 184.077a6.596 6.596 0 0 0 0 9.324l41.968 41.969a6.577 6.577 0 0 0 4.664 1.933 6.576 6.576 0 0 0 4.665-1.933l23.316-23.317a6.598 6.598 0 0 0 0-9.324l-4.664-4.663 23.316-23.316 4.664 4.664a6.596 6.596 0 0 0 9.325 0l18.652-18.653 44.301 44.301-66.629 66.63-41.512 23.207a6.633 6.633 0 0 0-2.68 2.809L42.664 335.01a6.604 6.604 0 0 0 1.234 7.614l23.317 23.316a6.594 6.594 0 0 0 7.613 1.234l37.305-18.651a6.616 6.616 0 0 0 2.808-2.681l23.207-41.511 66.633-66.629 123.602 123.604c5.129 5.129 11.871 7.692 18.613 7.692 6.758 0 13.516-2.575 18.664-7.719 10.285-10.284 10.301-27.007.031-37.276zM104.523 165.421l-4.664-4.661a6.6 6.6 0 0 0-9.328 0l-32.64 32.642a6.588 6.588 0 0 0 0 9.327l4.664 4.66-13.993 13.992-32.64-32.644 13.988-13.988 4.664 4.664a6.594 6.594 0 0 0 9.324 0l32.645-32.645a6.598 6.598 0 0 0 0-9.324l-4.664-4.664 55.957-55.957c.32-.32 32.09-31.988 49.582-40.735 6.016-3.007 12.129-4.914 17.508-6.125-9.008 9.958-20.5 23.633-26.274 34.422-8.664 16.2-9.918 39.012-10.086 46.993l-54.043 54.043zm23.653 130.23c-.43.43-.797.918-1.094 1.444l-22.664 40.539-31.238 15.619-16.59-16.594 15.617-31.238 40.535-22.665a6.773 6.773 0 0 0 1.446-1.089l67.277-67.282 13.988 13.993-67.277 67.273zm228.156 56.301c-5.141 5.14-13.496 5.156-18.621.026L137.164 151.432l18.652-18.652 200.547 200.551c5.129 5.125 5.114 13.476-.031 18.621zm0 0"/></symbol><symbol viewBox="0 0 27 24" id="heart" xmlns="http://www.w3.org/2000/svg"><path d="M24.807 2.231A7.395 7.395 0 0 0 19.503 0a7.396 7.396 0 0 0-5.305 2.231l-.698.709-.698-.709C11.385.792 9.501 0 7.498 0S3.61.792 2.193 2.231c-2.925 2.971-2.925 7.806 0 10.776l10.48 10.647c.171.175.385.281.607.322a1.144 1.144 0 0 0 1.046-.321l10.48-10.647c2.925-2.97 2.925-7.805.001-10.777zm-1.639 9.113L13.5 21.165l-9.668-9.821c-2.021-2.053-2.021-5.394 0-7.448.979-.995 2.281-1.542 3.666-1.542s2.687.547 3.665 1.542l1.518 1.542c.435.441 1.204.441 1.639 0l1.518-1.542a5.108 5.108 0 0 1 3.666-1.542c1.384 0 2.686.547 3.665 1.542 2.02 2.054 2.02 5.395-.001 7.448z"/></symbol><symbol viewBox="0 0 16 14.719" id="heart-fill" xmlns="http://www.w3.org/2000/svg"><path d="M8 14.719l-1.121-1.117C2.719 9.922 0 7.441 0 4.398 0 1.922 1.922 0 4.398 0 5.762 0 7.121.641 8 1.68A4.807 4.807 0 0 1 11.602 0C14.078 0 16 1.922 16 4.398c0 3.043-2.719 5.524-6.879 9.204L8 14.719zm0 0"/></symbol><symbol viewBox="0 0 330 330" id="information" xmlns="http://www.w3.org/2000/svg"><path d="M165 0C74.019 0 0 74.02 0 165.001 0 255.982 74.019 330 165 330s165-74.018 165-164.999S255.981 0 165 0zm0 300c-74.44 0-135-60.56-135-134.999S90.56 30 165 30s135 60.562 135 135.001C300 239.44 239.439 300 165 300z"/><path d="M164.998 70c-11.026 0-19.996 8.976-19.996 20.009 0 11.023 8.97 19.991 19.996 19.991 11.026 0 19.996-8.968 19.996-19.991 0-11.033-8.97-20.009-19.996-20.009zm.002 70c-8.284 0-15 6.716-15 15v90c0 8.284 6.716 15 15 15 8.284 0 15-6.716 15-15v-90c0-8.284-6.716-15-15-15z"/></symbol><symbol viewBox="0 0 67.996 68" id="like" xmlns="http://www.w3.org/2000/svg"><path d="M52.103 30.025a3.908 3.908 0 0 0-3.903-3.904h-7.175c1.743-1.959 2.883-4.19 3.103-6.192a4.304 4.304 0 0 0-1.036-3.33 3.744 3.744 0 0 0-2.792-1.282h-.037c-1.04 0-2.017.401-2.753 1.131a3.852 3.852 0 0 0-1.149 2.74c-.038.228-.438 1.011-1.416 1.941-.8.762-2.184 1.809-4.226 2.472-.801.26-1.533.739-2.175 1.423a14.1 14.1 0 0 1-1.467 1.352 2.178 2.178 0 0 0-1.026-.255h-6.814c-1.213 0-2.2.987-2.2 2.2v18.171c0 1.213.987 2.2 2.2 2.2h6.814a2.2 2.2 0 0 0 1.924-1.136h17.387a3.34 3.34 0 0 0 3.337-3.336c0-.619-.17-1.198-.464-1.695a3.339 3.339 0 0 0 1.136-4.543 3.339 3.339 0 0 0 1.019-4.727 3.901 3.901 0 0 0 1.713-3.23zm-3.904 1.774h-.568a1.064 1.064 0 0 0 0 2.13 1.208 1.208 0 0 1 0 2.414h-1.136a1.064 1.064 0 0 0 0 2.128c.666 0 1.207.542 1.207 1.207s-.541 1.207-1.207 1.207h-1.136a1.064 1.064 0 0 0 0 2.128 1.208 1.208 0 0 1 0 2.414h-17.11v-10.29a1.065 1.065 0 1 0-2.129 0v11.356a.071.071 0 0 1-.071.071h-6.814a.071.071 0 0 1-.071-.071V28.321c0-.039.032-.071.071-.071h6.814c.039 0 .071.032.071.071v2.271a1.065 1.065 0 0 0 2.129 0v-2.271c0-.052-.004-.102-.008-.153a16.18 16.18 0 0 0 1.853-1.686c.394-.42.825-.708 1.28-.855 2.506-.813 4.193-2.124 5.166-3.079 1.221-1.198 1.948-2.447 1.948-3.341 0-.472.185-.915.52-1.247a1.783 1.783 0 0 1 1.271-.513c.597.005.992.311 1.219.566.389.438.58 1.067.512 1.683-.232 2.116-1.924 4.73-4.31 6.662a1.065 1.065 0 0 0 .67 1.892h9.828a1.776 1.776 0 0 1 .001 3.549zm-25.557 10.21c-.588 0-1.07.482-1.07 1.07s.482 1.071 1.07 1.071c.588 0 1.07-.483 1.07-1.071 0-.587-.482-1.07-1.07-1.07zM66.098 34l1.829-4.84c.134-.352.07-.748-.165-1.042l-3.234-4.038.243-5.168a1.062 1.062 0 0 0-.479-.94l-4.324-2.841-1.365-4.991a1.065 1.065 0 0 0-.746-.746l-4.99-1.365-2.841-4.325a1.065 1.065 0 0 0-.939-.479l-5.168.244L39.88.234a1.066 1.066 0 0 0-1.042-.165l-4.84 1.829-4.84-1.829a1.066 1.066 0 0 0-1.042.165l-4.038 3.235-5.168-.244a1.06 1.06 0 0 0-.94.479l-2.84 4.325-4.99 1.365a1.062 1.062 0 0 0-.746.746l-1.365 4.991-4.324 2.841a1.066 1.066 0 0 0-.479.94l.244 5.168-3.235 4.038c-.235.294-.298.69-.166 1.042L1.898 34 .069 38.84c-.133.353-.07.748.165 1.042l3.235 4.038-.244 5.169c-.018.376.165.733.479.939l4.324 2.841 1.365 4.991c.099.363.383.646.746.746l4.991 1.364 2.84 4.325c.207.314.565.495.94.479l5.168-.244 4.038 3.235c.294.235.69.299 1.042.165l4.84-1.829 4.84 1.829a1.065 1.065 0 0 0 1.042-.164l4.038-3.235 5.168.244c.377.017.733-.164.939-.479l2.841-4.325 4.99-1.364c.363-.1.647-.384.746-.746l1.365-4.991 4.324-2.841c.314-.207.497-.563.479-.939l-.243-5.169 3.234-4.038c.235-.294.299-.689.165-1.042L66.098 34zm-2.134.376l1.757 4.648-3.107 3.878a1.067 1.067 0 0 0-.232.716l.234 4.964-4.153 2.729a1.062 1.062 0 0 0-.442.608l-1.311 4.793-4.793 1.312a1.06 1.06 0 0 0-.608.442l-2.729 4.153-4.963-.234c-.26-.012-.514.07-.716.232l-3.878 3.107-4.648-1.757a1.063 1.063 0 0 0-.752 0l-4.648 1.757-3.878-3.107a1.065 1.065 0 0 0-.715-.232l-4.963.234-2.728-4.153a1.06 1.06 0 0 0-.609-.442l-4.793-1.312-1.311-4.793a1.062 1.062 0 0 0-.442-.608l-4.153-2.729.234-4.964a1.062 1.062 0 0 0-.232-.716l-3.107-3.878 1.757-4.648c.091-.243.091-.51 0-.753l-1.757-4.648 3.107-3.878a1.06 1.06 0 0 0 .232-.716l-.234-4.963 4.153-2.728c.217-.143.374-.359.442-.609l1.311-4.793 4.793-1.311c.25-.068.466-.226.609-.442l2.728-4.153 4.963.234c.258.012.513-.071.715-.233l3.878-3.107 4.648 1.757c.243.092.51.092.753 0l4.648-1.757L42.9 5.382c.202.162.457.245.716.233l4.963-.234 2.729 4.153c.142.216.358.374.608.442l4.793 1.311 1.311 4.793c.068.25.226.466.442.609l4.153 2.728-.234 4.963c-.012.259.07.514.232.716l3.107 3.878-1.757 4.648a1.07 1.07 0 0 0 .001.754zM51.68 16.268c.256.256.51.521.755.787a1.064 1.064 0 1 0 1.568-1.439 28.577 28.577 0 0 0-1.67-1.67 1.065 1.065 0 0 0-1.441 1.568c.267.244.532.498.788.754zM31.366 9.064c5.614-.582 11.312.758 16.042 3.772a1.065 1.065 0 0 0 1.145-1.796c-5.135-3.271-11.316-4.725-17.406-4.095a27.243 27.243 0 0 0-16.405 7.817 27.107 27.107 0 0 0-7.94 18.117 27.102 27.102 0 0 0 6.341 18.588 1.062 1.062 0 0 0 1.5.129c.45-.378.508-1.05.129-1.5a24.972 24.972 0 0 1-5.843-17.13 24.983 24.983 0 0 1 7.317-16.697 25.103 25.103 0 0 1 15.12-7.205zM55.438 19.07a1.065 1.065 0 0 0-.326 1.47c3.014 4.731 4.354 10.428 3.772 16.042a25.112 25.112 0 0 1-7.204 15.12 24.98 24.98 0 0 1-16.696 7.318 24.961 24.961 0 0 1-17.129-5.843 1.064 1.064 0 1 0-1.371 1.629 27.077 27.077 0 0 0 18.587 6.342 27.104 27.104 0 0 0 18.116-7.94 27.247 27.247 0 0 0 7.816-16.406c.63-6.09-.824-12.272-4.095-17.406a1.065 1.065 0 0 0-1.47-.326z"/></symbol><symbol viewBox="0 0 13.996 15" id="magnifier" xmlns="http://www.w3.org/2000/svg"><path d="M13.783 13.662l-3.45-3.713a6.158 6.158 0 0 0 1.373-3.893C11.706 2.717 9.081 0 5.853 0S0 2.717 0 6.056s2.625 6.056 5.853 6.056a5.66 5.66 0 0 0 3.354-1.096l3.476 3.741a.745.745 0 0 0 1.078.022.81.81 0 0 0 .022-1.117zM5.853 1.58c2.386 0 4.326 2.008 4.326 4.476s-1.94 4.476-4.326 4.476c-2.385 0-4.326-2.008-4.326-4.476S3.468 1.58 5.853 1.58z"/></symbol><symbol viewBox="-6 0 591 591.1795" id="museum" xmlns="http://www.w3.org/2000/svg"><path d="M10.965 163.254a23.908 23.908 0 0 0-.375 3.535v24.313a24.102 24.102 0 0 0 15.64 22.496v35.773c.043 11.977 9.461 21.82 21.422 22.387v206.668c-11.96.57-21.379 10.414-21.422 22.387v35.667a24.373 24.373 0 0 0-15.64 22.707v23.782c0 4.433 3.601 8.031 8.035 8.031h541.766a8.034 8.034 0 0 0 8.03-8.031v-23.782a24.367 24.367 0 0 0-15.636-22.707v-35.878c-.043-11.977-9.465-21.82-21.422-22.387V271.758c11.957-.567 21.38-10.41 21.422-22.387v-35.773a24.104 24.104 0 0 0 15.637-22.496v-24.153a23.394 23.394 0 0 0-.375-3.535 7.995 7.995 0 0 0 10.55-4.07 7.999 7.999 0 0 0-4.066-10.551L293.203.93a8.035 8.035 0 0 0-7.5 0L4.38 148.633a8.04 8.04 0 0 0-3.363 10.855 8.03 8.03 0 0 0 9.949 3.766zm31.332 64.266v-12.372h92.648v12.266zm206.293 44.292v206.614c-11.961.57-21.38 10.414-21.422 22.387v34.167h-76.266v-34.168c-.043-11.972-9.46-21.816-21.422-22.386V271.758c11.961-.567 21.38-10.41 21.422-22.387v-34.223h76.157v34.172c.02 11.996 9.445 21.864 21.425 22.438zm-5.356-44.292v-12.372h92.653v12.266zm206.297 44.292v206.614c-11.96.57-21.383 10.414-21.426 22.387v34.167h-76.261v-34.168c-.043-11.972-9.465-21.816-21.422-22.386V271.758c11.957-.567 21.379-10.41 21.422-22.387v-34.223H428v34.172c.016 11.996 9.441 21.864 21.422 22.438zm-5.355-44.292v-12.372h92.648v12.266zm92.648 295.199v12.261h-92.758v-12.26zm-200.937 0v12.261h-92.758v-12.26zm-79.371-266.867h-6.961a6.423 6.423 0 0 1-6.426-6.426v-5.84h92.648v5.84a6.423 6.423 0 0 1-6.425 6.426zm57.894 16.066V478.32h-49.86V271.918h49.86zm-57.894 222.469h72.836a6.423 6.423 0 0 1 6.425 6.425v5.84H243.13v-5.84a6.423 6.423 0 0 1 6.426-6.425zM134.84 522.719v12.261H42.187v-12.26zM42.187 249.586v-6h92.653v5.84a6.424 6.424 0 0 1-6.43 6.426H48.453a6.425 6.425 0 0 1-6.266-6.48zm71.231 22.492V478.32H63.609V271.918zm-71.23 228.899a6.424 6.424 0 0 1 6.425-6.43h79.797a6.425 6.425 0 0 1 6.43 6.43v5.836H42.187zm510.167 58.535v15.742H26.551v-15.742a8.302 8.302 0 0 1 8.3-8.305h509.204c4.52 0 8.215 3.621 8.3 8.14v.165zm-15.636-58.535v5.836h-92.653v-5.836a6.424 6.424 0 0 1 6.426-6.43h79.961a6.427 6.427 0 0 1 6.266 6.265zm-71.23-22.497V271.918h49.859V478.32zm71.23-228.894a6.423 6.423 0 0 1-6.426 6.426h-79.746a6.423 6.423 0 0 1-6.426-6.426v-6h92.649zM289.453 16.996l239.23 125.746H50.224zM26.551 166.95a8.034 8.034 0 0 1 8.031-8.031h509.742a8.034 8.034 0 0 1 8.031 8.031v24.317a8.034 8.034 0 0 1-8.03 8.03H34.581a8.034 8.034 0 0 1-8.031-8.03zm0 0"/></symbol><symbol viewBox="0 0 409.602 300.371" id="oil" xmlns="http://www.w3.org/2000/svg"><path d="M382.301 54.613H334.5c-1.559 0-3.074.161-4.563.415a6.652 6.652 0 0 0-2.258-.415h-54.613v-6.828a6.827 6.827 0 0 0-6.828-6.824h-20.973C241.941 17.832 222.004 0 197.973 0c-24.032 0-43.969 17.832-47.293 40.961h-20.973a6.825 6.825 0 0 0-6.828 6.824v6.828H34.094c-11.27 0-20.442 9.188-20.442 20.481 0 11.293 9.172 20.48 20.442 20.48h88.785v7.512c-15.559 3.164-27.305 16.953-27.305 33.438V266.25c0 18.817 15.301 34.121 34.114 34.121h136.574c18.809 0 34.113-15.304 34.113-34.121V136.524c0-16.485-11.746-30.274-27.309-33.438v-7.512h34.133v61.438c0 15.06 12.246 27.31 27.301 27.31h47.801c15.055 0 27.301-12.25 27.301-27.31v-75.09c0-15.059-12.247-27.309-27.301-27.309zm-184.328-40.96c16.484 0 30.273 11.746 33.445 27.308h-66.891c3.172-15.562 16.961-27.308 33.446-27.308zm-61.438 75.093V54.613h122.879v47.786H136.535V88.746zM34.094 81.922c-3.805 0-6.785-3-6.785-6.828 0-3.766 3.043-6.828 6.785-6.828h88.785v13.656H34.094zm252.625 54.602V266.25c0 11.285-9.176 20.469-20.457 20.469H129.684c-11.278 0-20.457-9.184-20.457-20.469V136.524c0-11.286 9.179-20.469 20.457-20.469h136.578c11.281 0 20.457 9.183 20.457 20.469zm20.48-54.602h-34.133V68.266h37.828c-2.335 4.023-3.695 8.676-3.695 13.656zm88.746 75.09c0 7.527-6.121 13.656-13.645 13.656h-47.8c-7.523 0-13.645-6.125-13.645-13.656v-75.09c0-7.531 6.121-13.656 13.645-13.656h47.801c7.523 0 13.645 6.125 13.645 13.656v75.09zm0 0"/><path d="M39.75 119a6.827 6.827 0 0 0-11.234 0C23.754 125.895 0 161.113 0 177.492c0 18.821 15.312 34.133 34.133 34.133 18.824 0 34.133-15.312 34.133-34.133 0-16.379-23.754-51.597-28.516-58.492zm-5.617 78.973c-11.293 0-20.481-9.188-20.481-20.48 0-7.457 10.657-26.914 20.481-42.265 9.824 15.351 20.48 34.808 20.48 42.265 0 11.292-9.187 20.48-20.48 20.48zm0 0"/></symbol><symbol viewBox="0 0 536.461 536.46" id="open-folder" xmlns="http://www.w3.org/2000/svg"><path d="M144.752 263.52c19.603-9.038 38.354-13.559 56.243-13.559h237.548v-45.683c0-17.511-6.283-32.555-18.85-45.118-12.565-12.562-27.596-18.842-45.11-18.842H219.266v-9.136c0-17.511-6.28-32.548-18.842-45.107-12.563-12.562-27.6-18.846-45.111-18.846h-91.36c-17.511 0-32.548 6.283-45.111 18.846C6.279 98.635 0 113.672 0 131.183v274.084c0 .764.049 1.955.144 3.576.094 1.615.144 2.807.144 3.566l1.426-1.704L97.93 297.637c11.61-13.706 27.218-25.081 46.822-34.117z"/><path d="M528.898 290.214c-5.041-2.478-10.797-3.72-17.272-3.72H200.995c-12.562 0-26.219 3.381-40.968 10.14-14.75 6.766-26.219 14.986-34.401 24.701l-95.93 113.059c-5.902 6.662-8.853 12.945-8.853 18.849 0 5.708 2.523 9.802 7.566 12.272 5.043 2.478 10.8 3.716 17.273 3.716h310.64c12.56 0 26.21-3.381 40.963-10.136 14.75-6.756 26.214-14.989 34.399-24.701l95.931-113.059c5.899-6.663 8.846-12.939 8.846-18.849.004-5.707-2.515-9.797-7.563-12.272z"/></symbol><symbol viewBox="0 0 473.8 473.8" id="package" xmlns="http://www.w3.org/2000/svg"><path d="M454.8 111.7c0-1.8-.4-3.6-1.2-5.3-1.6-3.4-4.7-5.7-8.1-6.4L241.8 1.2c-3.3-1.6-7.2-1.6-10.5 0L25.6 100.9c-4 1.9-6.6 5.9-6.8 10.4V362c0 4.6 2.6 8.8 6.8 10.8l205.7 99.7c.1 0 .1 0 .2.1.3.1.6.2.9.4.1 0 .2.1.4.1l.9.3c.1 0 .2.1.3.1.3.1.7.1 1 .2h.3c.4 0 .9.1 1.3.1s.9 0 1.3-.1h.3c.3 0 .7-.1 1-.2.1 0 .2-.1.3-.1l.9-.3c.1 0 .2-.1.4-.1.3-.1.6-.2.9-.4.1 0 .1 0 .2-.1l206.3-100c4.1-2 6.8-6.2 6.8-10.8V112c-.2-.1-.2-.2-.2-.3zM236.5 25.3l178.4 86.5-65.7 31.9-178.4-86.5 65.7-31.9zm0 173L58.1 111.8l85.2-41.3L321.7 157l-85.2 41.3zM42.8 131.1l181.7 88.1v223.3L42.8 354.4V131.1zm205.7 311.4V219.2l85.3-41.4v58.4c0 6.6 5.4 12 12 12s12-5.4 12-12v-70.1l73-35.4V354l-182.3 88.5z"/></symbol><symbol viewBox="0 0 512 512" id="pay" xmlns="http://www.w3.org/2000/svg"><path d="M370 246c-5.52 0-10 4.48-10 10s4.48 10 10 10 10-4.48 10-10-4.48-10-10-10zM270 66H70c-5.523 0-10 4.477-10 10v100c0 5.523 4.477 10 10 10h200c5.523 0 10-4.477 10-10V76c0-5.523-4.477-10-10-10zm-10 100H80V86h180zm0 0"/><path d="M230 146c5.523 0 10-4.477 10-10v-20c0-5.523-4.477-10-10-10s-10 4.477-10 10v20c0 5.523 4.477 10 10 10zm-40 0c5.523 0 10-4.477 10-10v-20c0-5.523-4.477-10-10-10s-10 4.477-10 10v20c0 5.523 4.477 10 10 10zm0 0"/><path d="M482 66H340V50c0-27.57-22.43-50-50-50H50C22.43 0 0 22.43 0 50v412c0 27.57 22.43 50 50 50h240c27.57 0 50-22.43 50-50V326h142c16.543 0 30-13.457 30-30V96c0-16.543-13.457-30-30-30zm-142 80h152v40H340zm152-50v30H340V86h142c5.516 0 10 4.484 10 10zM320 462c0 16.543-13.457 30-30 30H50c-16.543 0-30-13.457-30-30V50c0-16.543 13.457-30 30-30h240c16.543 0 30 13.457 30 30zm162-156H340V206h152v90c0 5.516-4.484 10-10 10zm0 0"/><path d="M462 246h-52c-5.523 0-10 4.477-10 10s4.477 10 10 10h52c5.523 0 10-4.477 10-10s-4.477-10-10-10zm-352-20H70c-5.523 0-10 4.477-10 10v40c0 5.523 4.477 10 10 10h40c5.523 0 10-4.477 10-10v-40c0-5.523-4.477-10-10-10zm-10 40H80v-20h20zm10 40H70c-5.523 0-10 4.477-10 10v40c0 5.523 4.477 10 10 10h40c5.523 0 10-4.477 10-10v-40c0-5.523-4.477-10-10-10zm-10 40H80v-20h20zm10 40H70c-5.523 0-10 4.477-10 10v40c0 5.523 4.477 10 10 10h40c5.523 0 10-4.477 10-10v-40c0-5.523-4.477-10-10-10zm-10 40H80v-20h20zm90-200h-40c-5.523 0-10 4.477-10 10v40c0 5.523 4.477 10 10 10h40c5.523 0 10-4.477 10-10v-40c0-5.523-4.477-10-10-10zm-10 40h-20v-20h20zm10 40h-40c-5.523 0-10 4.477-10 10v40c0 5.523 4.477 10 10 10h40c5.523 0 10-4.477 10-10v-40c0-5.523-4.477-10-10-10zm-10 40h-20v-20h20zm10 40h-40c-5.523 0-10 4.477-10 10v40c0 5.523 4.477 10 10 10h40c5.523 0 10-4.477 10-10v-40c0-5.523-4.477-10-10-10zm-10 40h-20v-20h20zm90-200h-40c-5.523 0-10 4.477-10 10v40c0 5.523 4.477 10 10 10h40c5.523 0 10-4.477 10-10v-40c0-5.523-4.477-10-10-10zm-10 40h-20v-20h20zm10 40h-40c-5.523 0-10 4.477-10 10v40c0 5.523 4.477 10 10 10h40c5.523 0 10-4.477 10-10v-40c0-5.523-4.477-10-10-10zm-10 40h-20v-20h20zm10 40h-40c-5.523 0-10 4.477-10 10v40c0 5.523 4.477 10 10 10h40c5.523 0 10-4.477 10-10v-40c0-5.523-4.477-10-10-10zm-10 40h-20v-20h20zm0 0"/></symbol><symbol viewBox="0 0 578.106 578.106" id="phone" xmlns="http://www.w3.org/2000/svg"><path d="M577.83 456.128c1.225 9.385-1.635 17.545-8.568 24.48l-81.396 80.781c-3.672 4.08-8.465 7.551-14.381 10.404-5.916 2.857-11.729 4.693-17.439 5.508-.408 0-1.635.105-3.676.309-2.037.203-4.689.307-7.953.307-7.754 0-20.301-1.326-37.641-3.979s-38.555-9.182-63.645-19.584c-25.096-10.404-53.553-26.012-85.376-46.818-31.823-20.805-65.688-49.367-101.592-85.68-28.56-28.152-52.224-55.08-70.992-80.783-18.768-25.705-33.864-49.471-45.288-71.299-11.425-21.828-19.993-41.616-25.705-59.364S4.59 177.362 2.55 164.51-.306 141.56.102 134.216c.408-7.344.612-11.424.612-12.24.816-5.712 2.652-11.526 5.508-17.442s6.324-10.71 10.404-14.382L98.022 8.756c5.712-5.712 12.24-8.568 19.584-8.568 5.304 0 9.996 1.53 14.076 4.59s7.548 6.834 10.404 11.322l65.484 124.236c3.672 6.528 4.692 13.668 3.06 21.42-1.632 7.752-5.1 14.28-10.404 19.584l-29.988 29.988c-.816.816-1.53 2.142-2.142 3.978s-.918 3.366-.918 4.59c1.632 8.568 5.304 18.36 11.016 29.376 4.896 9.792 12.444 21.726 22.644 35.802s24.684 30.293 43.452 48.653c18.36 18.77 34.68 33.354 48.96 43.76 14.277 10.4 26.215 18.053 35.803 22.949 9.588 4.896 16.932 7.854 22.031 8.871l7.648 1.531c.816 0 2.145-.307 3.979-.918 1.836-.613 3.162-1.326 3.979-2.143l34.883-35.496c7.348-6.527 15.912-9.791 25.705-9.791 6.938 0 12.443 1.223 16.523 3.672h.611l118.115 69.768c8.571 5.308 13.67 12.038 15.303 20.198z"/></symbol><symbol viewBox="0 0 511.147 511.147" id="piston" xmlns="http://www.w3.org/2000/svg"><path d="M505.28 116.907l-.853-.853L396.053 7.68c-9.387-10.24-25.6-10.24-35.84 0l-11.947 11.947c-1.707 1.707-2.56 3.413-2.56 5.973s.853 4.267 2.56 5.973l5.973 5.973-11.113 11.113-5.954-5.993c-3.413-3.413-8.533-3.413-11.947 0s-3.413 8.533 0 11.947l5.954 5.993L318.4 73.387 306.453 61.44c-1.707-1.707-3.413-2.56-5.973-2.56-1.707 0-4.267.853-5.12 2.56L150.293 206.507c-3.413 3.413-3.413 8.533 0 11.947l8.533 8.533c11.947 11.947 30.72 11.947 42.667 0l17.92-17.92a86.161 86.161 0 0 1 19.874 3.965L104.213 347.307c-12.8-4.267-24.747-4.267-35.84-.853l-17.92-17.067c-3.413-3.413-8.533-3.413-11.947 0l-35.84 35.84C.959 366.934.106 368.64.106 371.2s.853 4.267 1.707 5.12l17.92 17.92c-9.387 27.307-1.707 58.027 18.773 78.507 21.333 21.333 52.053 28.16 79.36 18.773l17.92 17.067c1.707 1.707 4.267 2.56 5.973 2.56s4.267-.853 5.973-2.56l35.84-34.987c1.707-1.707 2.56-3.413 2.56-5.973s-.853-4.267-2.56-5.973l-17.92-17.92c4.267-11.947 3.413-23.04-.853-35.84l134.518-135.319c2.308 6.715 3.88 13.738 4.575 20.972l-17.92 17.92c-11.947 11.947-11.947 30.72 0 42.667l8.533 8.533c1.707 1.707 3.413 2.56 5.973 2.56s5.12-.853 5.12-2.56L450.667 217.6c3.413-3.413 3.413-8.533 0-11.947l-11.947-11.947 12.394-12.394 6.379 6.421c1.707 1.707 3.413 2.56 5.973 2.56s4.267-.853 5.973-2.56c3.413-3.413 3.413-8.533 0-11.947l-6.379-6.421 11.499-11.499 5.973 5.973c3.413 3.413 8.533 3.413 11.947 0l11.947-11.947.853-.853c7.681-9.386 7.681-24.746.001-34.132zM149.44 400.213c-2.56 2.56-3.413 5.973-1.707 9.387 5.973 16.213 4.267 25.6.853 33.28-1.707 3.413-.853 6.827 1.707 9.387l15.36 15.36-23.893 23.04-16.213-14.507c-1.707-1.707-4.267-2.56-5.973-2.56-.853 0-1.707 0-2.56.853-23.04 9.387-48.64 4.267-65.707-12.8-17.067-17.067-22.187-43.52-12.8-65.707 1.707-3.413.853-6.827-1.707-9.387L21.44 371.2l23.893-23.893 15.36 15.36c2.56 2.56 5.973 3.413 9.387 1.707 7.68-3.413 17.067-5.973 33.28.853 3.413 1.707 6.827.853 9.387-1.707L256.44 220.677c14.944 8.584 27.5 21.321 36.001 36.536l-143.001 143zm151.04-55.466l-2.56-2.56c-5.12-5.12-5.12-13.653 0-18.773l20.48-20.48c1.707-1.707 2.56-4.267 2.56-6.827-.866-14.071-4.537-27.59-10.419-39.978a8.557 8.557 0 0 0-.674-1.836c-5.084-10.167-11.795-19.604-19.694-27.927-.59-.627-1.187-1.248-1.79-1.862-.167-.169-.331-.342-.499-.51-8.908-8.953-19.235-16.446-30.516-22.014l-.108-.055c-12.761-6.281-26.738-10.098-41.259-10.779-1.707 0-4.267.853-5.973 2.56l-20.48 20.48c-5.12 5.12-13.653 5.12-18.773 0l-2.56-2.56L300.48 79.36l11.946 11.946.001.001L421.653 199.68l11.947 11.947-133.12 133.12zm126.72-162.56l-96.853-96.853 12.742-12.742 96.542 97.165-12.431 12.43zM355.036 60.644L367.04 48.64l96.853 96.853-12.316 12.316-96.541-97.165zm138.297 79.303l-5.12 5.12-5.973-5.973a8.875 8.875 0 0 0-2.724-1.871L373.013 30.72l-.001-.001-5.973-5.973 5.973-5.973c3.413-3.413 8.533-3.413 11.947 0l108.373 108.373c2.561 3.414 2.561 9.387.001 12.801z"/><path d="M246.72 254.293l-81.067 81.067c-3.413 3.413-3.413 8.533 0 11.947 1.707 1.707 3.413 2.56 5.973 2.56 1.707 0 4.267-.853 5.973-2.56l81.067-81.067c3.413-3.413 3.413-8.533 0-11.947-3.413-3.413-8.533-3.413-11.946 0zM63.253 389.973c-8.533 7.68-12.8 18.773-12.8 29.867s5.12 22.187 12.8 29.867c7.68 8.533 18.773 12.8 29.867 12.8 11.093 0 22.187-5.12 30.72-12.8 8.533-7.68 12.8-18.773 12.8-29.867s-5.12-22.187-12.8-29.867c-17.067-16.213-44.373-16.213-60.587 0zm47.787 47.787c-9.387 9.387-26.453 9.387-35.84 0-5.12-4.267-7.68-11.093-7.68-17.92s2.56-12.8 7.68-17.92c5.12-5.12 11.093-7.68 17.92-7.68 6.827 0 12.8 1.707 17.92 7.68 5.12 4.267 7.68 11.093 7.68 17.92s-2.56 12.8-7.68 17.92zm213.333-285.013c-18.773 0-34.133 15.36-34.133 34.133 0 18.773 15.36 34.133 34.133 34.133 18.773 0 34.133-15.36 34.133-34.133.001-18.773-15.359-34.133-34.133-34.133zm0 51.2c-9.387 0-17.067-7.68-17.067-17.067s7.68-17.067 17.067-17.067 17.067 7.68 17.067 17.067-7.68 17.067-17.067 17.067z"/></symbol><symbol viewBox="0 0 512 512" id="placeholder" xmlns="http://www.w3.org/2000/svg"><path d="M446.812 493.966l-67.499-142.781a12.633 12.633 0 0 0-6.48-6.223l-33.58-14.949 58.185-97.518c.139-.234.27-.471.395-.713 11.568-22.579 17.434-46.978 17.434-72.515 0-42.959-16.846-83.233-47.435-113.402C337.248 15.703 296.73-.588 253.745.016c-41.748.579-81.056 17.348-110.685 47.22-29.626 29.87-46.078 69.313-46.326 111.066-.152 25.515 5.877 50.923 17.431 73.479.124.241.255.479.394.713l58.184 97.517-33.774 15.031a12.626 12.626 0 0 0-6.285 6.142L65.187 493.966a12.635 12.635 0 0 0 16.56 16.941l84.558-37.646 84.558 37.646a12.644 12.644 0 0 0 10.277 0l84.558-37.646 84.558 37.646a12.63 12.63 0 0 0 16.556-16.941zm-310.339-274.06c-9.73-19.132-14.599-39.805-14.47-61.453.428-72.429 59.686-132.17 132.094-133.173 36.166-.486 70.263 13.199 95.993 38.576 25.738 25.383 39.911 59.267 39.911 95.412 0 21.359-4.869 41.757-14.473 60.638L266.85 402.054c-3.318 5.56-8.692 6.16-10.849 6.16-2.158 0-7.532-.6-10.849-6.16L136.473 219.906zm214.361 227.985a12.644 12.644 0 0 0-10.277 0l-84.558 37.646-84.558-37.646a12.644 12.644 0 0 0-10.277 0l-58.578 26.08 50.938-107.749 32.258-14.356 37.668 63.133c6.904 11.572 19.072 18.481 32.547 18.481 13.475 0 25.643-6.909 32.547-18.48l37.668-63.133 32.261 14.361 50.935 107.744-58.574-26.081z"/><path d="M256.004 101.607c-31.794 0-57.659 25.865-57.659 57.658s25.865 57.658 57.659 57.658c31.793.001 57.658-25.865 57.658-57.658s-25.865-57.658-57.658-57.658zm0 90.05c-17.861.001-32.393-14.529-32.393-32.392 0-17.861 14.531-32.392 32.393-32.392 17.861 0 32.392 14.531 32.392 32.392s-14.531 32.392-32.392 32.392z"/></symbol><symbol viewBox="0 0 12.334 12.017" id="rate-star" xmlns="http://www.w3.org/2000/svg"><path d="M7.723 3.552c.11.348.426.584.786.584h3.241c.564 0 .799.735.343 1.072L9.47 7.15a.857.857 0 0 0-.3.943l1.001 3.144c.175.546-.438 1.001-.896.663L6.653 9.959a.812.812 0 0 0-.973 0L3.058 11.9c-.456.338-1.07-.117-.895-.663l1.001-3.144a.851.851 0 0 0-.301-.943L.241 5.208C-.216 4.872.02 4.136.583 4.136h3.242a.831.831 0 0 0 .787-.584L5.613.41a.579.579 0 0 1 1.107 0l1.003 3.142zm0 0"/></symbol><symbol viewBox="0 0 12.334 12.017" id="rate-star-active" xmlns="http://www.w3.org/2000/svg"><path d="M7.723 3.552c.11.348.426.584.786.584h3.241c.564 0 .799.735.343 1.072L9.47 7.15a.857.857 0 0 0-.3.943l1.001 3.144c.175.546-.438 1.001-.896.663L6.653 9.959a.812.812 0 0 0-.973 0L3.058 11.9c-.456.338-1.07-.117-.895-.663l1.001-3.144a.851.851 0 0 0-.301-.943L.241 5.208C-.216 4.872.02 4.136.583 4.136h3.242a.831.831 0 0 0 .787-.584L5.613.41a.579.579 0 0 1 1.107 0l1.003 3.142zm0 0"/></symbol><symbol viewBox="0 0 510 510" id="rate-star-half" xmlns="http://www.w3.org/2000/svg"><path d="M510 197.472l-183.37-15.734L255 12.75l-71.629 168.988L0 197.472l139.103 120.539L97.41 497.25 255 402.186l157.59 95.039-41.692-179.239L510 197.472zM255 354.348V117.172l43.605 102.918 111.689 9.588-84.711 73.389 25.398 109.166L255 354.348z"/></symbol><symbol viewBox="0 0 11 9" id="rows" xmlns="http://www.w3.org/2000/svg"><path d="M0 0v1h11V0H0zm0 9h11V8H0v1zm0-4h11V4H0v1z"/></symbol><symbol viewBox="0 0 484.955 484.955" id="shopping-cart" xmlns="http://www.w3.org/2000/svg"><path d="M145.005 318.355h268.9c29.7 0 53.8-24.2 53.8-53.8v-113.3c0-6.6-5.4-12-12-12s-12 5.4-12 12v113.2c0 16.5-13.4 29.8-29.8 29.8h-268.9c-16.5 0-29.8-13.4-29.8-29.8v-221.2c0-.4 0-.8-.1-1.3v-.3c0-.3-.1-.6-.1-.8s-.1-.5-.2-.7c0-.1-.1-.3-.1-.4-.1-.3-.2-.5-.3-.7 0-.1-.1-.2-.1-.4-.1-.2-.2-.4-.3-.7-.1-.1-.1-.3-.2-.4-.1-.2-.2-.4-.3-.5-.1-.2-.2-.3-.3-.5-.1-.1-.2-.3-.3-.4-.1-.2-.3-.4-.4-.6-.1-.1-.2-.2-.2-.3-.2-.2-.3-.4-.5-.6-.1-.1-.2-.1-.2-.2l-.6-.6c-.1-.1-.2-.2-.3-.2-.2-.2-.4-.3-.6-.5-.2-.1-.4-.3-.7-.4-.1-.1-.2-.1-.3-.2-.4-.2-.8-.4-1.1-.6l-74.1-31c-6.1-2.6-13.1.3-15.7 6.4-2.6 6 .3 13.1 6.4 15.7l66.5 28.1v297.6c0 28.2 21.7 51.3 49.3 53.6-5.6 8.4-8.9 18.5-8.9 29.4 0 29.3 23.9 53.2 53.2 53.2s53.2-23.9 53.2-53.2c0-10.8-3.2-20.8-8.7-29.2h127.3c-5.5 8.4-8.7 18.4-8.7 29.2 0 29.3 23.9 53.2 53.2 53.2s53.2-23.9 53.2-53.2-23.9-53.2-53.2-53.2h-256c-16.5 0-29.8-13.4-29.8-29.8v-39.5c8.5 5.7 18.8 9.1 29.8 9.1zm68.9 113.4c0 16.1-13.1 29.2-29.2 29.2s-29.2-13.1-29.2-29.2 13.1-29.2 29.2-29.2 29.2 13.1 29.2 29.2zm216.2 0c0 16.1-13.1 29.2-29.2 29.2s-29.2-13.1-29.2-29.2 13.1-29.2 29.2-29.2 29.2 13.1 29.2 29.2z"/><path d="M270.805 241.655s0 .1 0 0c.3.3.6.6.9.8.1.1.3.2.4.3.2.1.3.3.5.4s.4.2.5.3c.2.1.3.2.5.3.2.1.4.2.5.3.2.1.3.2.5.2.2.1.4.1.5.2.2.1.4.1.6.2s.4.1.5.1c.2 0 .4.1.6.1s.4.1.6.1.3.1.5.1c.4 0 .8.1 1.2.1s.8 0 1.2-.1c.2 0 .4-.1.5-.1.2 0 .4-.1.6-.1s.4-.1.6-.1.4-.1.6-.1c.2-.1.4-.1.6-.2s.4-.1.5-.2c.2-.1.3-.2.5-.2l.6-.3c.2-.1.3-.2.5-.3.2-.1.4-.2.5-.3.2-.1.3-.2.5-.4.2-.1.3-.2.5-.3.3-.2.5-.5.8-.7l.1-.1 47.6-47.6c4.7-4.7 4.7-12.3 0-17s-12.3-4.7-17 0l-27.1 27.1v-166.2c0-6.6-5.4-12-12-12s-12 5.4-12 12v166.2l-27-27c-4.7-4.7-12.3-4.7-17 0s-4.7 12.3 0 17l47.6 47.5z"/></symbol><symbol viewBox="0 0 512 512" id="skype" xmlns="http://www.w3.org/2000/svg"><path d="M487.654 288.97c1.406-10.4 2.215-20.973 2.215-31.736 0-129.153-105.27-233.872-235.102-233.872-12.904 0-25.555 1.06-37.866 3.08-22.072-14.384-48.342-22.767-76.612-22.767C62.766 3.675 0 66.483 0 143.981c0 28.198 8.299 54.394 22.59 76.389a232.862 232.862 0 0 0-2.909 36.859c0 129.176 105.217 233.882 235.085 233.882 14.657 0 28.927-1.429 42.796-3.935 21.549 13.369 46.934 21.148 74.145 21.148C449.211 508.327 512 445.503 512 368.013c-.004-29.293-8.961-56.528-24.346-79.043zM276.74 429.597c-74.705 3.894-109.664-12.637-141.689-42.691-35.765-33.565-21.398-71.854 7.74-73.801 29.122-1.942 46.607 33.015 62.15 42.736 15.524 9.688 74.594 31.76 105.793-3.908 33.977-38.828-22.594-58.92-64.06-65.002-59.203-8.766-133.95-40.792-128.135-103.907 5.816-63.074 53.582-95.414 103.85-99.976 64.077-5.817 105.792 9.707 138.786 37.86 38.148 32.529 17.508 68.894-6.799 71.82-24.213 2.909-51.404-53.504-104.792-54.352-55.027-.864-92.217 57.261-24.286 73.784 67.967 16.505 140.75 23.286 166.961 85.417 26.231 62.137-40.751 128.125-115.519 132.02z"/></symbol><symbol viewBox="0 0 512 512" id="stopwatch" xmlns="http://www.w3.org/2000/svg"><path d="M156 212c-5.52 0-10 4.48-10 10s4.48 10 10 10 10-4.48 10-10-4.48-10-10-10zm120 100h-10v-40h10c5.514 0 10 4.486 10 10 0 5.522 4.478 10 10 10s10-4.478 10-10c0-16.542-13.458-30-30-30h-10v-10c0-5.522-4.478-10-10-10s-10 4.478-10 10v10h-10c-16.542 0-30 13.458-30 30v20c0 16.542 13.458 30 30 30h10v40h-10c-5.514 0-10-4.486-10-10 0-5.522-4.478-10-10-10s-10 4.478-10 10c0 16.542 13.458 30 30 30h10v10c0 5.522 4.478 10 10 10s10-4.478 10-10v-10h10c16.542 0 30-13.458 30-30v-20c0-16.542-13.458-30-30-30zm-30 0h-10c-5.514 0-10-4.486-10-10v-20c0-5.514 4.486-10 10-10h10v40zm40 50c0 5.514-4.486 10-10 10h-10v-40h10c5.514 0 10 4.486 10 10v20z"/><path d="M395.827 193.36l22.966-27.727c11.329-11.719 11.21-30.478-.366-42.07-11.704-11.686-30.735-11.687-42.428.005-.199.2-.391.408-.573.624l-26.862 31.852a189.023 189.023 0 0 0-52.563-19.805V80h30c10.681 0 20.724-4.162 28.281-11.719C361.838 60.724 366 50.681 366 40c0-22.056-17.944-40-40-40H186c-10.681 0-20.724 4.162-28.281 11.719S146 29.319 146 40c0 22.056 17.944 40 40 40h30v56.24a189.078 189.078 0 0 0-52.564 19.804l-26.862-31.852a10.587 10.587 0 0 0-.573-.624c-11.691-11.689-30.723-11.692-42.438.005-11.566 11.583-11.686 30.342-.356 42.061l22.966 27.727C83.751 228.516 66 273.844 66 322c0 104.767 85.233 190 190 190s190-85.233 190-190c0-48.156-17.751-93.484-50.173-128.64zm-5.432-55.894c3.913-3.65 10.076-3.569 13.89.24 3.9 3.905 3.903 10.255.005 14.152-.221.221-.431.452-.63.692l-22.183 26.781a191.19 191.19 0 0 0-15.838-12.511l24.756-29.354zM186 60c-11.028 0-20-8.972-20-20a19.866 19.866 0 0 1 5.861-14.139A19.866 19.866 0 0 1 186 20h140c11.028 0 20 8.972 20 20a19.866 19.866 0 0 1-5.861 14.139A19.866 19.866 0 0 1 326 60H186zm90 20v52h-40V80h40zm-167.659 72.55a10.29 10.29 0 0 0-.63-.692c-3.898-3.897-3.896-10.247-.005-14.143 3.822-3.815 9.983-3.901 13.899-.25l24.756 29.355a191.401 191.401 0 0 0-15.838 12.511l-22.182-26.781zM256 492c-93.738 0-170-76.262-170-170 0-45.838 17.972-88.813 50.603-121.011a170.996 170.996 0 0 1 29.901-23.553C193.316 160.796 224.264 152 256 152c31.736 0 62.684 8.796 89.499 25.439a170.89 170.89 0 0 1 29.898 23.55C408.029 233.187 426 276.162 426 322c0 93.738-76.262 170-170 170z"/><path d="M256 172c-23.691 0-46.388 5.398-67.46 16.044-4.929 2.491-6.906 8.506-4.416 13.436 2.491 4.929 8.504 6.905 13.436 4.416C215.809 196.675 235.471 192 256 192c71.683 0 130 58.317 130 130s-58.317 130-130 130-130-58.317-130-130c0-20.76 5.036-41.416 14.563-59.736 2.548-4.899.642-10.938-4.259-13.485-4.897-2.548-10.938-.641-13.485 4.259C111.815 274.195 106 298.042 106 322c0 82.71 67.29 150 150 150s150-67.29 150-150-67.29-150-150-150z"/></symbol><symbol viewBox="0 0 512 512" id="surprise" xmlns="http://www.w3.org/2000/svg"><path d="M509.07 2.995a10.07 10.07 0 0 0-7.069-2.93c-2.63 0-5.209 1.07-7.069 2.93a10.075 10.075 0 0 0-2.93 7.069c0 2.63 1.07 5.209 2.93 7.068a10.033 10.033 0 0 0 7.069 2.931c2.63 0 5.209-1.06 7.069-2.931a10.028 10.028 0 0 0 2.93-7.068c0-2.629-1.06-5.209-2.93-7.069zM389.954 165.014h-37.063a43.255 43.255 0 0 0 7.028-23.674c0-24.003-19.528-43.531-43.531-43.531-15.915 0-29.856 8.59-37.449 21.373-6.303-5.03-14.281-8.048-22.954-8.048s-16.65 3.018-22.954 8.048c-7.592-12.783-21.533-21.373-37.449-21.373-24.003 0-43.531 19.528-43.531 43.531 0 8.725 2.59 16.852 7.028 23.673h-37.062c-13.243 0-24.016 10.773-24.016 24.017v34.959c0 8.866 4.832 16.619 11.999 20.78v164.21c0 18.751 15.255 34.006 34.007 34.006h223.957c18.751 0 34.006-15.255 34.006-34.006V244.77c7.166-4.161 11.999-11.914 11.999-20.78v-34.959c.001-13.243-10.773-24.017-24.015-24.017zm-97.099-23.673c0-12.977 10.557-23.533 23.534-23.533 12.977 0 23.534 10.558 23.534 23.534s-10.557 23.533-23.534 23.533h-23.534v-23.534zm10.269 43.671l30.366 53.511-7.151-1.92a10 10 0 0 0-12.251 7.073l-1.749 6.534-36.672-65.199h27.457zm-47.137-53.879c9.303 0 16.871 7.567 16.871 16.87s-7.568 16.871-16.871 16.871-16.871-7.568-16.871-16.871 7.567-16.87 16.871-16.87zm-18.772 53.879l-30.608 53.492-1.814-6.781a10 10 0 0 0-12.251-7.073l-7.081 1.9 23.691-41.538h28.063zm-41.631-67.204c12.977 0 23.534 10.557 23.534 23.533v23.534h-23.534c-12.977 0-23.534-10.558-23.534-23.534s10.558-23.533 23.534-23.533zm-77.583 106.181v-34.958a4.024 4.024 0 0 1 4.019-4.019h64.11l-24.521 42.996H122.02a4.024 4.024 0 0 1-4.019-4.019zm155.983 198.999H144.007c-7.724 0-14.008-6.284-14.008-14.009V248.006h26.635c.118.175.217.358.347.526a10 10 0 0 0 10.507 3.548l20.571-5.52 5.504 20.576a10 10 0 0 0 18.338 2.383l6.087-10.639v101.116c0 5.521 4.477 9.999 9.999 9.999s9.999-4.478 9.999-9.999V248.595h35.996v174.393zm-38.666-194.391l21.14-36.945 20.78 36.945h-41.92zm146.655 180.382c0 7.724-6.284 14.009-14.009 14.009h-73.982V258.369l12.958 23.039a9.998 9.998 0 0 0 18.374-2.318l5.504-20.576 20.572 5.52a9.999 9.999 0 0 0 11.289-14.593l-.815-1.436h20.109v160.974zm11.999-184.989a4.024 4.024 0 0 1-4.019 4.019h-39.438l-24.398-42.996h63.836a4.022 4.022 0 0 1 4.019 4.018v34.959z"/><path d="M235.059 389.415a10.065 10.065 0 0 0-7.069-2.92c-2.63 0-5.209 1.06-7.069 2.92a10.08 10.08 0 0 0-2.93 7.079c0 2.63 1.07 5.209 2.93 7.069a10.08 10.08 0 0 0 7.069 2.93c2.63 0 5.209-1.07 7.069-2.93 1.86-1.87 2.93-4.44 2.93-7.069a10.107 10.107 0 0 0-2.93-7.079zM482.825 29.248c-3.904-3.904-10.236-3.904-14.141 0l-91.782 91.784c-3.904 3.906-3.904 10.237 0 14.142 1.953 1.952 4.512 2.929 7.07 2.929s5.118-.977 7.07-2.929l91.783-91.784c3.905-3.905 3.905-10.236 0-14.142zM100.073 87.951L43.578 31.457c-3.905-3.904-10.236-3.904-14.142 0-3.905 3.905-3.905 10.236 0 14.142l56.495 56.494c1.953 1.952 4.512 2.929 7.07 2.929s5.118-.977 7.07-2.929c3.906-3.905 3.906-10.236.002-14.142zM95.53 417.46c-3.904-3.904-10.235-3.904-14.141 0L3.941 494.909c-3.905 3.905-3.905 10.236 0 14.142 1.953 1.952 4.512 2.929 7.07 2.929s5.118-.977 7.07-2.929l77.449-77.449c3.905-3.905 3.905-10.236 0-14.142zm388.488 52.436l-49.919-49.919c-3.905-3.904-10.236-3.904-14.141 0-3.905 3.905-3.905 10.236 0 14.142l49.919 49.919c1.953 1.952 4.512 2.929 7.07 2.929s5.118-.977 7.07-2.929c3.906-3.905 3.906-10.236.001-14.142zM66.493 246.006H9.999c-5.522 0-9.999 4.478-9.999 9.999 0 5.521 4.477 9.999 9.999 9.999h56.494c5.522 0 9.999-4.477 9.999-9.999 0-5.521-4.476-9.999-9.999-9.999zm435.455 0h-57.036c-5.522 0-9.999 4.478-9.999 9.999 0 5.521 4.477 9.999 9.999 9.999h57.036c5.522 0 9.999-4.477 9.999-9.999 0-5.521-4.476-9.999-9.999-9.999zM255.987.021c-5.522 0-9.999 4.478-9.999 9.999v76.659c0 5.521 4.477 9.999 9.999 9.999s9.999-4.478 9.999-9.999v-76.66c-.001-5.521-4.477-9.998-9.999-9.998zm0 453.736c-5.522 0-9.999 4.478-9.999 9.999v38.225c0 5.521 4.477 9.999 9.999 9.999s9.999-4.478 9.999-9.999v-38.225c-.001-5.523-4.477-9.999-9.999-9.999zm245.974-99.882h-6.858c-5.522 0-9.999 4.478-9.999 9.999s4.477 9.999 9.999 9.999h6.858c5.522 0 9.999-4.478 9.999-9.999s-4.476-9.999-9.999-9.999zm-48.516 0h-6.858c-5.522 0-9.999 4.478-9.999 9.999s4.477 9.999 9.999 9.999h6.858c5.522 0 9.999-4.478 9.999-9.999s-4.476-9.999-9.999-9.999zm20.829 20.828c-5.522 0-9.999 4.478-9.999 9.999v6.858c0 5.521 4.477 9.999 9.999 9.999s9.999-4.478 9.999-9.999v-6.858c0-5.522-4.477-9.999-9.999-9.999zm0-48.515c-5.522 0-9.999 4.478-9.999 9.999v6.858c0 5.521 4.477 9.999 9.999 9.999s9.999-4.477 9.999-9.999v-6.858c0-5.522-4.477-9.999-9.999-9.999zM66.445 159.03h-6.858c-5.522 0-9.999 4.478-9.999 9.999 0 5.521 4.477 9.999 9.999 9.999h6.858c5.522 0 9.999-4.477 9.999-9.999 0-5.521-4.476-9.999-9.999-9.999zm-48.515 0h-6.858c-5.522 0-9.999 4.478-9.999 9.999 0 5.521 4.477 9.999 9.999 9.999h6.858c5.522 0 9.999-4.477 9.999-9.999 0-5.521-4.476-9.999-9.999-9.999zm20.829 20.829c-5.522 0-9.999 4.478-9.999 9.999v6.857c0 5.521 4.477 9.999 9.999 9.999s9.999-4.478 9.999-9.999v-6.857c0-5.523-4.477-9.999-9.999-9.999zm0-48.516c-5.522 0-9.999 4.478-9.999 9.999v6.857c0 5.521 4.477 9.999 9.999 9.999s9.999-4.478 9.999-9.999v-6.857c0-5.522-4.477-9.999-9.999-9.999zM373.64 19.696c-16.54 0-29.997 13.457-29.997 29.997S357.1 79.69 373.64 79.69s29.997-13.457 29.997-29.997-13.456-29.997-29.997-29.997zm0 39.996c-5.513 0-9.999-4.486-9.999-9.999s4.486-9.999 9.999-9.999 9.999 4.486 9.999 9.999-4.485 9.999-9.999 9.999zM43.019 333.877c-16.54 0-29.997 13.457-29.997 29.997s13.457 29.997 29.997 29.997 29.997-13.457 29.997-29.997-13.457-29.997-29.997-29.997zm0 39.996c-5.513 0-9.999-4.486-9.999-9.999s4.486-9.999 9.999-9.999 9.999 4.486 9.999 9.999-4.486 9.999-9.999 9.999zm337.695 92.815a10.07 10.07 0 0 0-7.069-2.93c-2.64 0-5.209 1.069-7.079 2.93a10.062 10.062 0 0 0-2.92 7.069c0 2.63 1.06 5.198 2.92 7.068 1.87 1.86 4.45 2.931 7.079 2.931s5.209-1.07 7.069-2.931a10.09 10.09 0 0 0 2.93-7.068 10.08 10.08 0 0 0-2.93-7.069zm-215.648 0a10.07 10.07 0 0 0-7.069-2.93c-2.63 0-5.209 1.069-7.069 2.93a10.056 10.056 0 0 0-2.93 7.069c0 2.63 1.07 5.198 2.93 7.068a10.076 10.076 0 0 0 7.069 2.931c2.63 0 5.209-1.07 7.069-2.931a10.09 10.09 0 0 0 2.93-7.068c0-2.64-1.07-5.21-2.93-7.069zm6.888-423.777a10.08 10.08 0 0 0-7.069-2.93c-2.63 0-5.209 1.07-7.069 2.93s-2.93 4.44-2.93 7.069c0 2.64 1.07 5.209 2.93 7.069 1.86 1.87 4.44 2.93 7.069 2.93 2.63 0 5.209-1.061 7.069-2.93a10.06 10.06 0 0 0 2.93-7.069c0-2.629-1.07-5.199-2.93-7.069zm308.599 113.038a10.033 10.033 0 0 0-7.069-2.93 10.03 10.03 0 0 0-7.069 2.93 10.06 10.06 0 0 0-2.93 7.069c0 2.63 1.07 5.199 2.93 7.069a10.08 10.08 0 0 0 7.069 2.93c2.63 0 5.209-1.07 7.069-2.93 1.86-1.87 2.93-4.44 2.93-7.069 0-2.639-1.07-5.209-2.93-7.069z"/></symbol><symbol viewBox="0 0 512.00078 512" id="tag" xmlns="http://www.w3.org/2000/svg"><path d="M177.8 206.922c3.91-3.91 3.91-10.242 0-14.14-3.898-3.91-10.23-3.91-14.14 0-3.91 3.898-3.91 10.23 0 14.14 3.91 3.898 10.242 3.898 14.14 0zm99 14.141c11.696-11.696 11.696-30.727 0-42.422-11.722-11.723-30.706-11.727-42.429 0-11.726 11.722-11.726 30.695 0 42.422 11.695 11.695 30.73 11.699 42.43 0zm-28.288-28.282a10.006 10.006 0 0 1 14.148 0c3.895 3.899 3.895 10.239 0 14.137-3.902 3.898-10.25 3.902-14.148 0a9.985 9.985 0 0 1 0-14.137zm-14.141 98.985c-11.726 11.726-11.726 30.707 0 42.433 11.723 11.723 30.703 11.727 42.43 0 11.699-11.699 11.699-30.734 0-42.433-11.723-11.72-30.707-11.723-42.43 0zm28.29 28.293c-3.911 3.906-10.243 3.906-14.15 0a10 10 0 0 1 0-14.149c3.91-3.91 10.239-3.906 14.15 0 3.898 3.899 3.898 10.246 0 14.149zm-87.595-47.539c1.082 5.421 6.356 8.925 11.766 7.843l141.418-28.289c5.414-1.082 8.926-6.351 7.844-11.765-1.082-5.418-6.352-8.926-11.766-7.844L182.91 260.754c-5.418 1.082-8.93 6.351-7.844 11.766zm0 0"/><path d="M304.008 56.574a9.996 9.996 0 0 0-7.07 2.926l-104.99 104.988c-3.906 3.907-3.906 10.239 0 14.145s10.238 3.906 14.14 0l97.919-97.918L431.28 207.992l-224.5 224.5L79.504 305.22l70.02-70.02c3.906-3.902 3.906-10.234 0-14.14-3.907-3.903-10.239-3.903-14.145 0l-77.086 77.09c-3.906 3.902-3.906 10.234 0 14.14l141.418 141.418a9.996 9.996 0 0 0 14.14 0l238.645-238.644c3.906-3.907 3.906-10.239 0-14.145L311.078 59.5a9.996 9.996 0 0 0-7.07-2.926zm0 0"/><path d="M494.926 2.934l-42.922 42.918c-25.043-18.91-59.625-19.22-84.457-.782L332.39 8.895l-.102-.102c-11.664-11.664-30.633-11.79-42.437.016L8.793 291.079c-11.723 11.722-11.727 30.706 0 42.433l39.664 39.66c-8.86 25.355-2.469 54.101 16.902 73.465 19.368 19.375 48.114 25.761 73.47 16.91l39.663 39.66c11.723 11.723 30.715 11.719 42.414.016l282.301-281.09c11.727-11.727 11.727-30.7 0-42.422l-.102-.102-36.171-35.148c18.37-24.664 18.3-59.262-.786-84.465l42.918-42.918c3.907-3.906 3.907-10.238 0-14.144a9.996 9.996 0 0 0-14.14 0zM446.145 138a10.027 10.027 0 0 0-2.93 7.145 10.002 10.002 0 0 0 3.031 7.097l42.86 41.653c3.878 3.921 3.835 10.218-.028 14.078l-282.297 281.09c-3.902 3.902-10.25 3.902-14.148 0l-44.352-44.348a9.998 9.998 0 0 0-11.316-1.984c-19.23 9.023-42.324 4.91-57.461-10.239-15.149-15.137-19.262-38.226-10.238-57.457a10 10 0 0 0-1.98-11.32l-44.349-44.348c-3.902-3.902-3.902-10.246.012-14.164l281.063-282.27c3.89-3.886 10.18-3.91 14.093-.042l41.649 42.859c3.734 3.844 10.129 4.219 14.246.105 17.117-17.125 43.922-18.953 63.668-5.668L423 74.855c-11.152-5.312-24.926-3.363-34.145 5.856-11.695 11.7-11.695 30.734 0 42.43 11.723 11.722 30.707 11.726 42.434 0 9.43-9.43 11.082-23.262 5.867-34.157L451.82 74.32c13.184 19.516 11.664 46.344-5.675 63.68zm-29-43.148a10 10 0 0 1 0 14.148c-3.907 3.906-10.239 3.906-14.145 0-3.902-3.902-3.902-10.25-.004-14.148 3.902-3.895 10.25-3.903 14.149 0zm0 0"/></symbol><symbol viewBox="0 0 11 11" id="tiles" xmlns="http://www.w3.org/2000/svg"><path d="M0 5h5V0H0v5zm6-5v5h5V0H6zM0 11h5V6H0v5zm6 0h5V6H6v5z"/></symbol><symbol viewBox="0 0 24 30" id="user" xmlns="http://www.w3.org/2000/svg"><path d="M22.643 19.809c-.959-1.135-2.269-1.778-3.737-1.778H16.17v-2.088a11.055 11.055 0 0 0 1.516-2.293c.78-.131 1.565-.935 1.973-2.083.499-1.404.276-2.664-.532-3.116.34-1.819-.16-3.992-1.348-5.628C16.459 1.002 14.419 0 12.031 0S7.603 1.002 6.283 2.822C5.101 4.454 4.596 6.618 4.929 8.434c-.833.437-1.078 1.71-.573 3.132.421 1.186 1.192 1.982 1.995 2.09.42.841.869 1.679 1.581 2.409v1.966h-2.77c-1.469 0-2.813.644-3.772 1.778C.498 20.865 0 22.282 0 23.766v2.848c0 .293.174.561.439.688C4.7 29.361 8.729 30 12.081 30c1.766 0 3.347-.177 4.675-.417 4.181-.754 6.777-2.244 6.887-2.307.238-.137.357-.389.357-.663v-2.848c0-1.483-.464-2.9-1.357-3.956zm-9.728 3.253c0 .29-.236.524-.527.524h-.775a.526.526 0 0 1-.527-.524v-.77c0-.289.236-.524.527-.524h.775c.291 0 .527.235.527.524v.77zm.495-2.585a2.057 2.057 0 0 0-.979-.224h-.794c-.354 0-.688.067-.979.224l-1.283-1.281a.797.797 0 0 0 .084-.362V17.47a4.325 4.325 0 0 0 2.541.849c.968 0 1.831-.354 2.645-.921v1.436c0 .1.051.205.086.293l-1.321 1.35zM7.536 3.716c.723-.997 2.089-2.186 4.499-2.186 2.408 0 3.775 1.188 4.497 2.186 1.125 1.551 1.328 3.408 1.048 4.636-5.043 1.226-7.459-3.479-7.559-3.679-.147-.298-.471-.467-.803-.419s-.594.303-.65.631c-.005.033-.55 2.973-2.077 3.482-.284-1.227-.084-3.094 1.045-4.651zM5.655 9.942c2.131.167 3.401-1.658 3.958-3.117.337.421.763.887 1.28 1.332 1.49 1.278 3.209 1.931 5.052 1.931.654 0 1.738-.083 2.419-.249.046.206.06.654-.141 1.218-.231.65-.566.979-.711 1.063a.775.775 0 0 0-.963.41c-.879 1.964-2.589 4.258-4.516 4.258-1.933 0-3.644-2.301-4.522-4.271a.77.77 0 0 0-.995-.4c-.145-.087-.476-.414-.706-1.06-.178-.501-.187-.89-.155-1.115zm-4.13 13.824c0-2.021 1.292-4.221 3.637-4.221h2.452l2.049 2.065c-.064.2-.103.437-.103.657v.788c0 .575.242 1.094.625 1.467l-.684 3.812c-2.434-.255-5.128-.902-7.976-2.202v-2.366zm9.54 4.675l.588-3.341h.76l.59 3.345c-.618.023-1.266.025-1.938-.004zm11.41-2.29c-.814.419-3.027 1.396-6.075 1.937-.574.103-1.188.191-1.856.258l-.698-3.824c.382-.373.596-.892.596-1.467v-.788c0-.22-.006-.457-.07-.656l2.083-2.065h2.451c2.345 0 3.569 2.201 3.569 4.221v2.384z"/></symbol><symbol viewBox="0 0 512 512" id="voucher" xmlns="http://www.w3.org/2000/svg"><path d="M131.069 92.93C129.21 91.07 126.63 90 124 90s-5.21 1.07-7.07 2.93S114 97.37 114 100s1.069 5.21 2.93 7.07c1.861 1.86 4.44 2.93 7.07 2.93s5.21-1.07 7.069-2.93c1.86-1.86 2.931-4.44 2.931-7.07s-1.07-5.21-2.931-7.07z"/><path d="M502 90H163.667c-5.522 0-10 4.477-10 10s4.478 10 10 10H492v292H20V110h65c5.522 0 10-4.477 10-10s-4.478-10-10-10H10c-5.522 0-10 4.477-10 10v312c0 5.522 4.478 10 10 10h492c5.522 0 10-4.478 10-10V100c0-5.523-4.478-10-10-10z"/><path d="M236 188.138h-27.764a35.768 35.768 0 0 0 3.764-16c0-19.851-16.149-36-36-36-10.214 0-19.442 4.283-26 11.139-6.558-6.856-15.786-11.139-26-11.139-19.851 0-36 16.149-36 36 0 5.745 1.36 11.176 3.764 16H64c-5.522 0-10 4.477-10 10v60c0 5.522 4.478 10 10 10v58c0 16.542 13.458 30 30 30h112c16.542 0 30-13.458 30-30v-58c5.522 0 10-4.478 10-10v-60c0-5.523-4.478-10-10-10zm-120 148H94c-5.514 0-10-4.487-10-10v-58h32v68zm0-88H74v-40h42v40zm-8-76c0-8.822 7.178-16 16-16s16 7.178 16 16v16h-16c-8.822 0-16-7.178-16-16zm56 86v78h-28v-128h28v50zm-4-70v-16c0-8.823 7.178-16 16-16s16 7.178 16 16-7.178 16-16 16h-16zm56 138c0 5.514-4.486 10-10 10h-22v-68h32v58zm10-78h-42v-40h42v40zm174.321-96.275c-4.809-2.716-10.908-1.019-13.624 3.792L332.928 250.9c-2.715 4.81-1.018 10.909 3.792 13.624a9.997 9.997 0 0 0 13.624-3.792l53.769-95.245c2.715-4.81 1.018-10.909-3.792-13.624zm8.908 59.67c-16.542 0-30 13.458-30 30s13.458 30 30 30 30-13.458 30-30-13.458-30-30-30zm0 40c-5.514 0-10-4.486-10-10s4.486-10 10-10 10 4.486 10 10-4.486 10-10 10zm-69.883-117.074c-16.542 0-30 13.458-30 30s13.458 30 30 30 30-13.458 30-30-13.458-30-30-30zm0 40c-5.514 0-10-4.486-10-10s4.486-10 10-10 10 4.486 10 10-4.487 10-10 10zM448 298H300.574c-5.522 0-10 4.478-10 10s4.478 10 10 10H448c5.522 0 10-4.478 10-10s-4.478-10-10-10zm-73.713 42.299h-73.713c-5.522 0-10 4.478-10 10s4.478 10 10 10h73.713c5.522 0 10-4.478 10-10s-4.478-10-10-10zm43.922 2.93c-1.86-1.859-4.44-2.93-7.07-2.93s-5.2 1.071-7.07 2.93a10.064 10.064 0 0 0-2.93 7.07c0 2.63 1.07 5.21 2.93 7.07 1.87 1.859 4.44 2.93 7.07 2.93s5.21-1.07 7.07-2.93c1.87-1.86 2.93-4.44 2.93-7.07s-1.06-5.21-2.93-7.07z"/></symbol><symbol viewBox="0 0 334.877 334.877" id="wallet" xmlns="http://www.w3.org/2000/svg"><path d="M333.196 155.999h-16.067V82.09c0-17.719-14.415-32.134-32.134-32.134h-21.761L240.965 9.917a19.28 19.28 0 0 0-26.222-7.488l-85.464 47.526H33.815c-17.719 0-32.134 14.415-32.134 32.134v220.653c0 17.719 14.415 32.134 32.134 32.134h251.18c17.719 0 32.134-14.415 32.134-32.134V237.94h16.067v-81.941zm-48.201-93.19c9.897 0 17.982 7.519 19.068 17.14h-24.152l-9.525-17.14h14.609zm-63.999-49.146c3.014-1.69 7.07-.508 8.734 2.494l35.476 63.786H101.798l119.198-66.28zm83.279 289.079c0 10.63-8.651 19.281-19.281 19.281H33.815c-10.63 0-19.281-8.651-19.281-19.281V82.09c0-10.63 8.651-19.281 19.281-19.281h72.353L75.345 79.95H37.832c-3.554 0-6.427 2.879-6.427 6.427s2.873 6.427 6.427 6.427h266.443v63.201h-46.999c-21.826 0-39.589 17.764-39.589 39.589v2.764c0 21.826 17.764 39.589 39.589 39.589h46.999v64.795zm16.067-77.655h-63.066c-14.743 0-26.736-11.992-26.736-26.736v-2.764c0-14.743 11.992-26.736 26.736-26.736h63.066v56.236zm-43.381-27.59c0 7.841-6.35 14.19-14.19 14.19-7.841 0-14.19-6.35-14.19-14.19s6.35-14.19 14.19-14.19c7.841-.001 14.19 6.355 14.19 14.19z"/></symbol></svg>