<?xml version="1.0" encoding="utf-8"?>
<!-- Generator: Adobe Illustrator 14.0.0, SVG Export Plug-In . SVG Version: 6.00 Build 43363)  -->
<!DOCTYPE svg PUBLIC "-//W3C//DTD SVG 1.1//EN" "http://www.w3.org/Graphics/SVG/1.1/DTD/svg11.dtd">
<svg version="1.1" id="Layer_1" xmlns="http://www.w3.org/2000/svg" xmlns:xlink="http://www.w3.org/1999/xlink" x="0px" y="0px"
	 width="62px" height="68px" viewBox="0 0 62 68" enable-background="new 0 0 62 68" xml:space="preserve">
<g>
	<path fill="none" d="M37.815,46.813c0.042-0.058,0.084-0.113,0.128-0.173c0.225-0.296,0.459-0.583,0.702-0.86l0.033-0.038
		c1.61-1.807,3.635-3.191,5.897-4.036l0.198-0.073c0.304-0.107,0.613-0.203,0.925-0.291c0.142-0.04,0.284-0.076,0.428-0.113
		c0.264-0.066,0.528-0.127,0.797-0.178c0.226-0.042,0.46-0.074,0.691-0.105c0.204-0.03,0.405-0.063,0.611-0.082
		c0.451-0.043,0.91-0.07,1.373-0.07c0.306,0,0.606,0.024,0.902,0.044l0.141,0.011h0.028c1.423,0.107,2.823,0.422,4.156,0.935
		c0.58,0.228,1.233-0.061,1.459-0.645c0.051-0.131,0.077-0.27,0.077-0.41V3.4c0-0.626-0.505-1.133-1.127-1.133h-3.382V1.133
		C51.854,0.507,51.35,0,50.728,0C50.104,0,49.6,0.507,49.6,1.133v1.133h-2.254V1.133C47.346,0.507,46.841,0,46.218,0
		c-0.622,0-1.127,0.507-1.127,1.133v1.133h-2.255V1.133C42.836,0.507,42.332,0,41.709,0s-1.127,0.507-1.127,1.133v1.133h-2.255
		V1.133C38.327,0.507,37.822,0,37.2,0c-0.623,0-1.128,0.507-1.128,1.133v1.133H20.291V1.133C20.291,0.507,19.786,0,19.164,0
		s-1.127,0.507-1.127,1.133v1.133h-2.254V1.133C15.782,0.507,15.277,0,14.654,0s-1.127,0.507-1.127,1.133v1.133h-2.255V1.133
		C11.272,0.507,10.768,0,10.146,0S9.018,0.507,9.018,1.133v1.133H6.764V1.133C6.764,0.507,6.259,0,5.636,0S4.509,0.507,4.509,1.133
		v1.133H1.127C0.505,2.267,0,2.774,0,3.4v53.266C0,57.293,0.505,57.8,1.127,57.8h32.747c0.623,0.002,1.129-0.505,1.131-1.131
		c0-0.026-0.001-0.055-0.003-0.082l-0.009-0.131c-0.025-0.307-0.048-0.612-0.048-0.923c0.004-1.122,0.136-2.239,0.393-3.331
		c0.251-1.086,0.626-2.141,1.117-3.141c0.048-0.1,0.092-0.2,0.143-0.299c0.15-0.288,0.313-0.566,0.48-0.845
		c0.053-0.087,0.104-0.177,0.16-0.263C37.421,47.368,37.613,47.087,37.815,46.813z M40.582,32.867h-6.764v-6.8h6.764V32.867z
		 M40.582,23.8h-6.764V17h6.764V23.8z M49.6,26.066v6.8h-6.764v-6.8H49.6z M42.836,23.8V17H49.6v6.8H42.836z M49.603,38.533
		c-0.528,0-1.049,0.03-1.565,0.079c-0.225,0.021-0.436,0.056-0.654,0.084c-0.276,0.038-0.552,0.076-0.823,0.127
		s-0.57,0.113-0.853,0.183c-0.172,0.042-0.345,0.086-0.516,0.134c-0.339,0.093-0.677,0.193-1.015,0.308
		c-0.043,0.016-0.085,0.032-0.128,0.047c-0.41,0.145-0.815,0.295-1.21,0.468v-4.829h6.764V38.533z M2.254,4.533h2.255v1.133
		c0,0.626,0.504,1.133,1.127,1.133s1.127-0.507,1.127-1.133V4.533h2.254v1.133c0,0.626,0.505,1.133,1.127,1.133
		s1.127-0.507,1.127-1.133V4.533h2.255v1.133c0,0.626,0.504,1.133,1.127,1.133s1.127-0.507,1.127-1.133V4.533h2.254v1.133
		c0,0.626,0.505,1.133,1.127,1.133s1.127-0.507,1.127-1.133V4.533h15.781v1.133c0,0.626,0.505,1.133,1.128,1.133
		c0.622,0,1.127-0.507,1.127-1.133V4.533h2.255v1.133c0,0.626,0.504,1.133,1.127,1.133s1.127-0.507,1.127-1.133V4.533h2.255v1.133
		c0,0.626,0.505,1.133,1.127,1.133c0.623,0,1.128-0.507,1.128-1.133V4.533H49.6v1.133c0,0.626,0.505,1.133,1.128,1.133
		c0.622,0,1.127-0.507,1.127-1.133V4.533h2.255V10.2H2.254V4.533z M32.69,55.533H2.254V12.466h51.855v26.693
		c-0.74-0.209-1.493-0.366-2.255-0.471V15.867c0-0.626-0.505-1.133-1.127-1.133H5.636c-0.623,0-1.127,0.507-1.127,1.133v36.266
		c0,0.626,0.504,1.134,1.127,1.134h27.222C32.753,54.018,32.696,54.774,32.69,55.533z M24.8,41.933v-6.8h6.764v6.8H24.8z
		 M31.563,44.2V51H24.8v-6.8H31.563z M24.8,32.867v-6.8h6.764v6.8H24.8z M24.8,23.8V17h6.764v6.8H24.8z M15.782,41.933v-6.8h6.764
		v6.8H15.782z M22.545,44.2V51h-6.764v-6.8H22.545z M15.782,32.867v-6.8h6.764v6.8H15.782z M15.782,23.8V17h6.764v6.8H15.782z
		 M6.764,41.933v-6.8h6.764v6.8H6.764z M13.527,44.2V51H6.764v-6.8H13.527z M6.764,32.867v-6.8h6.764v6.8H6.764z M6.764,23.8V17
		h6.764v6.8H6.764z M35.006,46.991c-0.039,0.064-0.081,0.126-0.117,0.19c-0.162,0.287-0.309,0.583-0.45,0.88
		c-0.08,0.163-0.161,0.325-0.236,0.491c-0.122,0.273-0.237,0.553-0.346,0.833c-0.012,0.028-0.023,0.055-0.035,0.083V44.2h3.214
		C36.267,45.059,35.587,45.994,35.006,46.991z M33.818,41.933v-6.8h6.764v6.046c-0.388,0.247-0.763,0.51-1.128,0.786v-0.032H33.818z
		 M49.6,43.066c-6.848,0-12.399,5.582-12.399,12.467S42.752,68,49.6,68C56.448,68,62,62.418,62,55.533
		C61.992,48.651,56.445,43.074,49.6,43.066z M49.6,65.733c-5.603,0-10.146-4.567-10.146-10.2c0-5.634,4.543-10.2,10.146-10.2
		c5.604,0,10.146,4.566,10.146,10.2C59.739,61.164,55.2,65.727,49.6,65.733z M54.439,49.065l-4.84,4.865l-2.585-2.599
		c-0.447-0.435-1.161-0.423-1.594,0.027c-0.422,0.439-0.422,1.136,0,1.575l3.382,3.399c0.44,0.443,1.154,0.443,1.594,0l5.637-5.666
		c0.433-0.45,0.42-1.168-0.027-1.603C55.568,48.641,54.876,48.641,54.439,49.065z"/>
</g>
</svg>
