<?xml version="1.0" encoding="utf-8"?>
<!-- Generator: Adobe Illustrator 14.0.0, SVG Export Plug-In . SVG Version: 6.00 Build 43363)  -->
<!DOCTYPE svg PUBLIC "-//W3C//DTD SVG 1.1//EN" "http://www.w3.org/Graphics/SVG/1.1/DTD/svg11.dtd">
<svg version="1.1" id="Layer_1" xmlns="http://www.w3.org/2000/svg" xmlns:xlink="http://www.w3.org/1999/xlink" x="0px" y="0px"
	 width="31.006px" height="29.007px" viewBox="0 0 31.006 29.007" enable-background="new 0 0 31.006 29.007" xml:space="preserve">
<path fill="#1B9ABD" d="M30.814,5.515c-0.188-0.255-0.486-0.406-0.804-0.406H7.627c-0.044,0-0.087,0.002-0.128,0.008l-0.922-2.64
	c-0.096-0.273-0.306-0.49-0.576-0.596L1.358,0.068C0.847-0.131,0.27,0.119,0.069,0.627c-0.201,0.508,0.05,1.083,0.562,1.282
	l4.216,1.647l5.162,14.787c-0.229,0.079-0.421,0.253-0.51,0.496l-1.492,4.12c-0.091,0.253-0.053,0.533,0.103,0.753
	s0.408,0.35,0.679,0.35h0.766c-0.475,0.525-0.766,1.218-0.766,1.979c0,1.636,1.338,2.967,2.984,2.967
	c1.645,0,2.984-1.331,2.984-2.967c0-0.761-0.292-1.453-0.767-1.979h6.507c-0.475,0.525-0.767,1.218-0.767,1.979
	c0,1.636,1.339,2.967,2.984,2.967c1.646,0,2.985-1.331,2.985-2.967c0-0.761-0.292-1.453-0.767-1.979h0.932
	c0.458,0,0.829-0.368,0.829-0.823s-0.371-0.824-0.829-0.824H9.968l0.924-2.552c0.119,0.05,0.248,0.079,0.383,0.079h14.591
	c0.433,0,0.815-0.277,0.947-0.687L30.958,6.4C31.055,6.099,31.002,5.771,30.814,5.515z M11.772,27.359
	c-0.732,0-1.327-0.592-1.327-1.318c0-0.728,0.595-1.319,1.327-1.319c0.73,0,1.326,0.592,1.326,1.319
	C13.099,26.767,12.503,27.359,11.772,27.359z M22.715,27.359c-0.731,0-1.326-0.592-1.326-1.318c0-0.728,0.595-1.319,1.326-1.319
	c0.732,0,1.327,0.592,1.327,1.319C24.042,26.767,23.447,27.359,22.715,27.359z M27.93,9.312h-5.076V7.087h5.794L27.93,9.312z
	 M26.468,13.844h-3.614V11.29h4.438L26.468,13.844z M16.276,13.844V11.29h4.588v2.555H16.276z M20.864,15.822v2.143h-4.588v-2.143
	H20.864z M9.653,11.29h4.633v2.555h-3.742L9.653,11.29z M16.276,9.312V7.087h4.588v2.225H16.276z M14.286,7.087v2.225H8.962
	L8.186,7.087H14.286z M11.235,15.822h3.051v2.143h-2.304L11.235,15.822z M22.854,17.964v-2.143h2.978l-0.69,2.143H22.854z"/>
</svg>
