<?xml version="1.0" encoding="utf-8"?>
<!-- Generator: Adobe Illustrator 14.0.0, SVG Export Plug-In . SVG Version: 6.00 Build 43363)  -->
<!DOCTYPE svg PUBLIC "-//W3C//DTD SVG 1.1//EN" "http://www.w3.org/Graphics/SVG/1.1/DTD/svg11.dtd">
<svg version="1.1" id="Layer_1" xmlns="http://www.w3.org/2000/svg" xmlns:xlink="http://www.w3.org/1999/xlink" x="0px" y="0px"
	 width="12.024px" height="11.993px" viewBox="0 0 12.024 11.993" enable-background="new 0 0 12.024 11.993" xml:space="preserve">
<g>
	<path fill="none" d="M7.438,6.012l4.292-4.292c0.394-0.395,0.394-1.033,0-1.425c-0.394-0.394-1.031-0.394-1.425,0L6.013,4.587
		L1.721,0.295c-0.394-0.394-1.032-0.394-1.425,0c-0.394,0.392-0.394,1.031,0,1.425l4.292,4.292l-4.26,4.26
		c-0.394,0.394-0.394,1.031,0,1.426c0.394,0.394,1.032,0.394,1.425,0l4.26-4.26l4.26,4.26c0.394,0.394,1.032,0.394,1.426,0
		c0.394-0.395,0.394-1.032,0-1.426L7.438,6.012z"/>
</g>
</svg>
