<?xml version="1.0" encoding="iso-8859-1"?>
<!-- Generator: Adobe Illustrator 19.0.0, SVG Export Plug-In . SVG Version: 6.00 Build 0)  -->
<svg version="1.1" id="Layer_1" xmlns="http://www.w3.org/2000/svg" xmlns:xlink="http://www.w3.org/1999/xlink" x="0px" y="0px"
	 viewBox="0 0 512 512" style="enable-background:new 0 0 512 512;" xml:space="preserve">
<g>
	<g>
		<path d="M256.003,0C142.053,0,56.91,45.045,56.91,85.321c0,40.276,85.143,85.321,199.093,85.321
			c113.948,0,199.089-45.045,199.089-85.321C455.092,45.045,369.95,0,256.003,0z"/>
	</g>
</g>
<g>
	<g>
		<path d="M429.61,418.778c-46.847,23.43-108.503,36.33-173.607,36.33c-65.109,0-126.769-12.901-173.618-36.328
			c-9.226-4.616-17.716-9.567-25.476-14.813v22.71c0,40.276,85.143,85.323,199.093,85.323c113.948,0,199.089-45.047,199.089-85.323
			v-22.711C447.33,409.211,438.839,414.164,429.61,418.778z"/>
	</g>
</g>
<g>
	<g>
		<path d="M429.61,304.996c-46.847,23.426-108.503,36.328-173.607,36.328c-65.109,0-126.769-12.903-173.618-36.328
			c-9.226-4.616-17.716-9.567-25.476-14.813v22.709c0,40.276,85.143,85.323,199.093,85.323c113.948,0,199.089-45.047,199.089-85.323
			v-22.713C447.33,295.424,438.839,300.38,429.61,304.996z"/>
	</g>
</g>
<g>
	<g>
		<path d="M429.61,191.213c-46.847,23.422-108.503,36.322-173.607,36.322c-65.109,0-126.769-12.901-173.618-36.324
			c-9.226-4.616-17.716-9.569-25.476-14.813v22.706c0,40.278,85.143,85.327,199.093,85.327c113.948,0,199.089-45.049,199.089-85.327
			v-22.708C447.33,181.642,438.839,186.597,429.61,191.213z"/>
	</g>
</g>
<g>
</g>
<g>
</g>
<g>
</g>
<g>
</g>
<g>
</g>
<g>
</g>
<g>
</g>
<g>
</g>
<g>
</g>
<g>
</g>
<g>
</g>
<g>
</g>
<g>
</g>
<g>
</g>
<g>
</g>
</svg>
