<?xml version="1.0" encoding="utf-8"?>
<!-- Generator: Adobe Illustrator 14.0.0, SVG Export Plug-In . SVG Version: 6.00 Build 43363)  -->
<!DOCTYPE svg PUBLIC "-//W3C//DTD SVG 1.1//EN" "http://www.w3.org/Graphics/SVG/1.1/DTD/svg11.dtd">
<svg version="1.1" id="Layer_1" xmlns="http://www.w3.org/2000/svg" xmlns:xlink="http://www.w3.org/1999/xlink" x="0px" y="0px"
	 width="409.602px" height="304px" viewBox="0 0 409.602 304" enable-background="new 0 0 409.602 304" xml:space="preserve">
<g>
	<path d="M345.602,240c-8.844,0-16,7.16-16,16s7.156,16,16,16c8.84,0,16-7.16,16-16S354.441,240,345.602,240L345.602,240z
		 M345.602,240"/>
	<path d="M337.602,176c-4.418,0-8,3.582-8,8c0,4.414,3.582,8,8,8c4.414,0,8-3.586,8-8C345.602,179.582,342.016,176,337.602,176
		L337.602,176z M337.602,176"/>
	<path d="M100.801,240c-8.84,0-16,7.16-16,16s7.16,16,16,16c8.84,0,16-7.16,16-16S109.641,240,100.801,240L100.801,240z
		 M100.801,240"/>
	<path d="M375.977,144.511L362.18,89.336c4.906-4.692,7.422-10.91,7.422-17.336c0-13.235-10.766-24-24-24h-64V24
		c0-13.235-10.766-24-24-24H24C10.766,0,0,10.765,0,24v208c0,13.233,10.766,24,24,24h28.801c0,26.469,21.531,48,48,48
		c26.469,0,48-21.531,48-48h148.801c0,26.469,21.531,48,48,48s48-21.531,48-48c0-0.457-0.023-0.91-0.035-1.367
		c9.328-3.289,16.035-12.192,16.035-22.633v-48C409.602,164.113,395.012,147.574,375.977,144.511L375.977,144.511z M347.352,96
		l12,48h-66.438l18.344-18.344c3.125-3.125,3.125-8.187,0-11.312s-8.188-3.125-11.313,0l-18.344,18.339V96H347.352z M353.602,72
		c0,4.414-3.586,8-8,8h-64V64h64C350.012,64,353.602,67.586,353.602,72L353.602,72z M100.801,288c-17.645,0-32-14.356-32-32
		c0-17.887,14.613-32,32-32c17.426,0,32,14.151,32,32C132.801,273.644,118.445,288,100.801,288L100.801,288z M146.055,240
		c-6.684-18.879-24.766-32-45.254-32c-20.496,0-38.59,13.129-45.258,32H24c-4.414,0-8-3.59-8-8V24c0-4.414,3.586-8,8-8h233.602
		c4.41,0,8,3.586,8,8v216H146.055z M345.602,288c-17.645,0-32-14.356-32-32c0-17.887,14.613-32,32-32c17.422,0,32,14.151,32,32
		C377.602,273.644,363.242,288,345.602,288L345.602,288z M390.285,238.472C383.188,220.414,365.531,208,345.602,208
		c-20.5,0-38.59,13.129-45.258,32h-18.742v-80h88c10.426,0,19.32,6.687,22.625,16h-22.625c-4.422,0-8,3.582-8,8s3.578,8,8,8h24v40
		C393.602,234.66,392.289,237.015,390.285,238.472L390.285,238.472z M390.285,238.472"/>
	<path d="M140.801,48c-39.699,0-72,32.301-72,72s32.301,72,72,72c39.699,0,72-32.301,72-72S180.5,48,140.801,48L140.801,48z
		 M140.801,176c-30.879,0-56-25.121-56-56c0-30.879,25.121-56,56-56c30.879,0,56,25.121,56,56
		C196.801,150.879,171.68,176,140.801,176L140.801,176z M140.801,176"/>
	<path d="M172.801,112h-24V88c0-4.418-3.582-8-8-8s-8,3.582-8,8v32c0,4.418,3.582,8,8,8h32c4.418,0,8-3.582,8-8
		S177.219,112,172.801,112L172.801,112z M172.801,112"/>
</g>
</svg>
