<?xml version="1.0" encoding="utf-8"?>
<!-- Generator: Adobe Illustrator 14.0.0, SVG Export Plug-In . SVG Version: 6.00 Build 43363)  -->
<!DOCTYPE svg PUBLIC "-//W3C//DTD SVG 1.1//EN" "http://www.w3.org/Graphics/SVG/1.1/DTD/svg11.dtd">
<svg version="1.1" id="Layer_1" xmlns="http://www.w3.org/2000/svg" xmlns:xlink="http://www.w3.org/1999/xlink" x="0px" y="0px"
	 width="358.398px" height="409.602px" viewBox="0 0 358.398 409.602" enable-background="new 0 0 358.398 409.602"
	 xml:space="preserve">
<g>
	<path d="M271.609,153.602h-54.113l-38.293,56.41l-38.297-56.41H86.789l64.867,96.984L78.465,358.398h104.895V321.77h-24.222
		l20.062-29.996l44.559,66.625h56.18l-73.191-107.813L271.609,153.602z M335.773,79.773l-57.145-57.144
		C266.184,10.184,241.602,0,224,0H32C14.398,0,0,14.398,0,32v345.602c0,17.598,14.398,32,32,32h294.398c17.602,0,32-14.402,32-32
		V134.398C358.398,116.801,348.219,92.219,335.773,79.773L335.773,79.773z M317.672,97.875c1.25,1.25,2.5,2.789,3.711,4.523H256
		V37.02c1.734,1.21,3.273,2.457,4.527,3.71L317.672,97.875z M332.801,377.602c0,3.469-2.934,6.398-6.402,6.398H32
		c-3.469,0-6.398-2.93-6.398-6.398V32c0-3.469,2.929-6.398,6.398-6.398h192c1.934,0,4.102,0.242,6.398,0.679V128h101.719
		c0.438,2.297,0.684,4.465,0.684,6.398V377.602z M332.801,377.602"/>
</g>
</svg>
