<?xml version="1.0" encoding="utf-8"?>
<!-- Generator: Adobe Illustrator 14.0.0, SVG Export Plug-In . SVG Version: 6.00 Build 43363)  -->
<!DOCTYPE svg PUBLIC "-//W3C//DTD SVG 1.1//EN" "http://www.w3.org/Graphics/SVG/1.1/DTD/svg11.dtd">
<svg version="1.1" id="Layer_1" xmlns="http://www.w3.org/2000/svg" xmlns:xlink="http://www.w3.org/1999/xlink" x="0px" y="0px"
	 width="270.629px" height="409.602px" viewBox="0 0 270.629 409.602" enable-background="new 0 0 270.629 409.602"
	 xml:space="preserve">
<g>
	<path d="M270.609,237.188c-0.223-3.074-5.801-75.816-38.094-117.335c-32.641-41.965-93.324-53.438-95.891-53.906
		c-0.434-0.079-0.871-0.118-1.313-0.118h-32.914V7.313c0-4.039-3.273-7.313-7.312-7.313H43.867c-12.09,0-21.926,9.844-21.926,21.942
		c0,12.101,9.836,21.945,21.926,21.945h7.332v21.941H29.316C13.152,65.828,0,78.969,0,95.121v285.188
		c0,16.152,13.121,29.293,29.254,29.293h212.121c16.133,0,29.254-13.125,29.254-29.254V237.715
		C270.629,237.539,270.621,237.363,270.609,237.188L270.609,237.188z M43.867,29.258c-4.094,0-7.297-3.215-7.297-7.316
		c0-4.032,3.274-7.313,7.297-7.313h43.906v51.199H65.828V36.571c0-4.04-3.273-7.313-7.312-7.313H43.867z M256,380.348
		c0,8.063-6.563,14.625-14.625,14.625H29.254c-8.063,0-14.625-6.578-14.625-14.664V95.121c0-8.086,6.59-14.664,14.691-14.664
		h105.285c6.219,1.266,58.735,12.856,86.364,48.375C249.645,165.707,255.625,233.402,256,238V380.348z M256,380.348"/>
	<path d="M117.027,219.43c-40.328,0-73.14,32.809-73.14,73.141s32.812,73.145,73.14,73.145c40.333,0,73.145-32.813,73.145-73.145
		S157.359,219.43,117.027,219.43L117.027,219.43z M117.027,351.086c-32.261,0-58.511-26.25-58.511-58.516
		s26.25-58.512,58.511-58.512c32.266,0,58.516,26.246,58.516,58.512S149.293,351.086,117.027,351.086L117.027,351.086z
		 M117.027,351.086"/>
	<path d="M122.645,244c-1.391-1.664-3.45-2.629-5.618-2.629s-4.222,0.965-5.613,2.629c-5.168,6.191-30.957,37.98-30.957,55.887
		c0,20.164,16.406,36.57,36.57,36.57c20.168,0,36.575-16.406,36.575-36.57C153.602,281.98,127.812,250.191,122.645,244L122.645,244z
		 M117.027,321.828c-12.097,0-21.941-9.844-21.941-21.941c0-7.852,11.48-25.816,21.941-39.477
		c10.465,13.66,21.946,31.625,21.946,39.477C138.973,311.984,129.129,321.828,117.027,321.828L117.027,321.828z M117.027,321.828"/>
	<path d="M223.68,176.906l-102.398-73.144c-2.234-1.594-5.172-1.805-7.597-0.551c-2.438,1.254-3.969,3.762-3.969,6.504v43.887
		c0,2.359,1.14,4.578,3.062,5.949l102.399,73.144c1.266,0.902,2.758,1.363,4.254,1.363c1.145,0,2.293-0.27,3.344-0.813
		c2.438-1.254,3.969-3.762,3.969-6.504V182.86C226.742,180.496,225.602,178.278,223.68,176.906L223.68,176.906z M212.113,212.531
		l-87.77-62.695V123.93l87.77,62.691V212.531z M212.113,212.531"/>
</g>
</svg>
