<?xml version="1.0" encoding="utf-8"?>
<!-- Generator: Adobe Illustrator 14.0.0, SVG Export Plug-In . SVG Version: 6.00 Build 43363)  -->
<!DOCTYPE svg PUBLIC "-//W3C//DTD SVG 1.1//EN" "http://www.w3.org/Graphics/SVG/1.1/DTD/svg11.dtd">
<svg version="1.1" id="Layer_1" xmlns="http://www.w3.org/2000/svg" xmlns:xlink="http://www.w3.org/1999/xlink" x="0px" y="0px"
	 width="409.92px" height="369.96px" viewBox="0 0 409.92 369.96" enable-background="new 0 0 409.92 369.96" xml:space="preserve">
<g>
	<g>
		<defs>
			<rect id="SVGID_1_" width="409.92" height="369.96"/>
		</defs>
		<clipPath id="SVGID_2_">
			<use xlink:href="#SVGID_1_"  overflow="visible"/>
		</clipPath>
		<path clip-path="url(#SVGID_2_)" d="M397.527,35.678l-23.363-23.363C358.926-2.923,333.25-3.81,316.93,10.338l-41.066,35.594
			c-0.523,0.457-0.977,0.992-1.332,1.59l-39.977,66.582l-25.664,8.559c-2.168,0.722-3.809,2.515-4.332,4.738
			c-0.528,2.227,0.136,4.562,1.752,6.18l69.95,69.949c1.25,1.25,2.934,1.93,4.664,1.93c0.504,0,1.012-0.059,1.512-0.176
			c2.227-0.524,4.02-2.164,4.742-4.332l8.559-25.676l67.563-40.797c0.598-0.359,1.129-0.808,1.586-1.336l34.75-40.273
			C413.707,76.565,412.758,50.909,397.527,35.678L397.527,35.678z M389.652,84.253l-34.066,39.476l-68.746,41.512
			c-1.344,0.808-2.352,2.074-2.848,3.562l-5.949,17.856l-15.766-15.762c0-0.004-0.004-0.008-0.008-0.012l-23.316-23.316
			c0,0-0.004-0.004-0.008-0.004l-15.762-15.766l17.855-5.953c1.492-0.496,2.758-1.511,3.57-2.859l40.688-67.777l40.27-34.907
			c11.203-9.711,28.82-9.113,39.27,1.336l23.363,23.367C398.656,55.46,399.305,73.065,389.652,84.253L389.652,84.253z
			 M389.652,84.253"/>
	</g>
	<path d="M365.691,324.003L165.145,123.456l4.66-4.664c1.261-1.258,1.957-2.977,1.933-4.758c-0.004-0.27-0.265-26.953,8.547-43.426
		c9.172-17.152,36.305-44.383,36.578-44.656c1.867-1.867,2.438-4.668,1.457-7.121c-0.984-2.45-3.336-4.078-5.977-4.137
		c-0.84-0.016-20.934-0.348-40.824,9.598c-19.387,9.691-51.645,41.839-53.008,43.203l-60.621,60.621
		c-1.239,1.238-1.934,2.918-1.934,4.664c0,1.75,0.695,3.43,1.934,4.664l4.66,4.664l-23.317,23.313l-4.66-4.661
		c-2.574-2.574-6.75-2.574-9.328,0L1.93,184.077c-1.235,1.234-1.93,2.91-1.93,4.66s0.695,3.43,1.93,4.664l41.968,41.969
		c1.29,1.289,2.977,1.933,4.664,1.933c1.688,0,3.376-0.644,4.665-1.933l23.316-23.317c1.234-1.237,1.93-2.914,1.93-4.664
		c0-1.746-0.696-3.426-1.93-4.66l-4.664-4.663l23.316-23.316l4.664,4.664c2.575,2.574,6.75,2.574,9.325,0l18.652-18.653
		l44.301,44.301l-66.629,66.63l-41.512,23.207c-1.152,0.648-2.086,1.624-2.68,2.809L42.664,335.01
		c-1.269,2.539-0.769,5.606,1.234,7.614l23.317,23.316c1.265,1.266,2.957,1.93,4.664,1.93c1.004,0,2.012-0.228,2.949-0.696
		l37.305-18.651c1.183-0.595,2.164-1.527,2.808-2.681l23.207-41.511l66.633-66.629l123.602,123.604
		c5.129,5.129,11.871,7.692,18.613,7.692c6.758,0,13.516-2.575,18.664-7.719C375.945,350.995,375.961,334.272,365.691,324.003
		L365.691,324.003z M104.523,165.421l-4.664-4.661c-2.574-2.574-6.75-2.574-9.328,0l-32.64,32.642
		c-1.239,1.237-1.934,2.914-1.934,4.664s0.695,3.43,1.934,4.663l4.664,4.66l-13.993,13.992l-32.64-32.644l13.988-13.988l4.664,4.664
		c2.574,2.574,6.75,2.574,9.324,0l32.645-32.645c1.234-1.238,1.93-2.914,1.93-4.664c0-1.746-0.696-3.426-1.93-4.66l-4.664-4.664
		l55.957-55.957c0.32-0.32,32.09-31.988,49.582-40.735c6.016-3.007,12.129-4.914,17.508-6.125
		c-9.008,9.958-20.5,23.633-26.274,34.422c-8.664,16.2-9.918,39.012-10.086,46.993L104.523,165.421z M128.176,295.651
		c-0.43,0.43-0.797,0.918-1.094,1.444l-22.664,40.539L73.18,353.253l-16.59-16.594l15.617-31.238l40.535-22.665
		c0.528-0.296,1.016-0.664,1.446-1.089l67.277-67.282l13.988,13.993L128.176,295.651z M356.332,351.952
		c-5.141,5.14-13.496,5.156-18.621,0.026L137.164,151.432l18.652-18.652l200.547,200.551
		C361.492,338.456,361.477,346.807,356.332,351.952L356.332,351.952z M356.332,351.952"/>
</g>
</svg>
