<?xml version="1.0" encoding="utf-8"?>
<!-- Generator: Adobe Illustrator 14.0.0, SVG Export Plug-In . SVG Version: 6.00 Build 43363)  -->
<!DOCTYPE svg PUBLIC "-//W3C//DTD SVG 1.1//EN" "http://www.w3.org/Graphics/SVG/1.1/DTD/svg11.dtd">
<svg version="1.1" id="Layer_1" xmlns="http://www.w3.org/2000/svg" xmlns:xlink="http://www.w3.org/1999/xlink" x="0px" y="0px"
	 width="27px" height="24px" viewBox="0 0 27 24" enable-background="new 0 0 27 24" xml:space="preserve">
<path d="M24.807,2.231C23.39,0.792,21.506,0,19.503,0c-2.004,0-3.888,0.792-5.305,2.231L13.5,2.94l-0.698-0.709
	C11.385,0.792,9.501,0,7.498,0S3.61,0.792,2.193,2.231c-2.925,2.971-2.925,7.806,0,10.776l10.48,10.647
	c0.171,0.175,0.385,0.281,0.607,0.322C13.356,23.993,13.432,24,13.507,24c0.296,0,0.594-0.115,0.819-0.345l10.48-10.647
	C27.731,10.038,27.731,5.203,24.807,2.231z M23.168,11.344L13.5,21.165l-9.668-9.821c-2.021-2.053-2.021-5.394,0-7.448
	c0.979-0.995,2.281-1.542,3.666-1.542s2.687,0.547,3.665,1.542l1.518,1.542c0.435,0.441,1.204,0.441,1.639,0l1.518-1.542
	c0.979-0.995,2.281-1.542,3.666-1.542c1.384,0,2.686,0.547,3.665,1.542C25.189,5.95,25.189,9.291,23.168,11.344z"/>
</svg>
