<?xml version="1.0" encoding="utf-8"?>
<!-- Generator: Adobe Illustrator 14.0.0, SVG Export Plug-In . SVG Version: 6.00 Build 43363)  -->
<!DOCTYPE svg PUBLIC "-//W3C//DTD SVG 1.1//EN" "http://www.w3.org/Graphics/SVG/1.1/DTD/svg11.dtd">
<svg version="1.1" id="Layer_1" xmlns="http://www.w3.org/2000/svg" xmlns:xlink="http://www.w3.org/1999/xlink" x="0px" y="0px"
	 width="67.996px" height="68px" viewBox="0 0 67.996 68" enable-background="new 0 0 67.996 68" xml:space="preserve">
<g>
	<g>
		<path d="M52.103,30.025c0-2.152-1.751-3.904-3.903-3.904h-7.175c1.743-1.959,2.883-4.19,3.103-6.192
			c0.135-1.223-0.243-2.437-1.036-3.33c-0.726-0.817-1.717-1.272-2.792-1.282c-0.013,0-0.025,0-0.037,0
			c-1.04,0-2.017,0.401-2.753,1.131c-0.737,0.73-1.145,1.703-1.149,2.74c-0.038,0.228-0.438,1.011-1.416,1.941
			c-0.8,0.762-2.184,1.809-4.226,2.472c-0.801,0.26-1.533,0.739-2.175,1.423c-0.337,0.359-0.842,0.854-1.467,1.352
			c-0.307-0.163-0.655-0.255-1.026-0.255h-6.814c-1.213,0-2.2,0.987-2.2,2.2v18.171c0,1.213,0.987,2.2,2.2,2.2h6.814
			c0.827,0,1.548-0.459,1.924-1.136h17.387c1.84,0,3.337-1.496,3.337-3.336c0-0.619-0.17-1.198-0.464-1.695
			c0.958-0.587,1.599-1.644,1.599-2.848c0-0.618-0.169-1.198-0.463-1.695c0.958-0.587,1.599-1.644,1.599-2.848
			c0-0.696-0.214-1.343-0.58-1.879C51.422,32.554,52.103,31.368,52.103,30.025z M48.199,31.799h-0.568
			c-0.588,0-1.064,0.477-1.064,1.065s0.477,1.065,1.064,1.065c0.666,0,1.207,0.541,1.207,1.207c0,0.665-0.541,1.207-1.207,1.207
			h-1.136c-0.588,0-1.064,0.477-1.064,1.064s0.477,1.064,1.064,1.064c0.666,0,1.207,0.542,1.207,1.207s-0.541,1.207-1.207,1.207
			h-1.136c-0.588,0-1.064,0.477-1.064,1.064s0.477,1.064,1.064,1.064c0.666,0,1.207,0.542,1.207,1.207
			c0,0.666-0.541,1.207-1.207,1.207h-17.11V35.137c0-0.589-0.477-1.065-1.065-1.065c-0.588,0-1.064,0.476-1.064,1.065v11.356
			c0,0.039-0.032,0.071-0.071,0.071h-6.814c-0.039,0-0.071-0.032-0.071-0.071V28.321c0-0.039,0.032-0.071,0.071-0.071h6.814
			c0.039,0,0.071,0.032,0.071,0.071v2.271c0,0.588,0.477,1.065,1.064,1.065c0.588,0,1.065-0.477,1.065-1.065v-2.271
			c0-0.052-0.004-0.102-0.008-0.153c0.798-0.618,1.437-1.243,1.853-1.686c0.394-0.42,0.825-0.708,1.28-0.855
			c2.506-0.813,4.193-2.124,5.166-3.079c1.221-1.198,1.948-2.447,1.948-3.341c0-0.472,0.185-0.915,0.52-1.247
			c0.338-0.335,0.787-0.513,1.271-0.513c0.597,0.005,0.992,0.311,1.219,0.566c0.389,0.438,0.58,1.067,0.512,1.683
			c-0.232,2.116-1.924,4.73-4.31,6.662c-0.351,0.284-0.484,0.758-0.334,1.183c0.15,0.425,0.553,0.709,1.004,0.709h9.828
			c0.979,0,1.774,0.796,1.774,1.774S49.178,31.799,48.199,31.799z M22.642,42.009c-0.588,0-1.07,0.482-1.07,1.07
			s0.482,1.071,1.07,1.071c0.588,0,1.07-0.483,1.07-1.071C23.712,42.492,23.23,42.009,22.642,42.009z M66.098,34l1.829-4.84
			c0.134-0.352,0.07-0.748-0.165-1.042l-3.234-4.038l0.243-5.168c0.019-0.375-0.164-0.733-0.479-0.94l-4.324-2.841l-1.365-4.991
			c-0.1-0.363-0.383-0.647-0.746-0.746l-4.99-1.365l-2.841-4.325c-0.206-0.314-0.563-0.496-0.939-0.479l-5.168,0.244L39.88,0.234
			c-0.294-0.235-0.69-0.298-1.042-0.165l-4.84,1.829l-4.84-1.829c-0.352-0.133-0.748-0.07-1.042,0.165l-4.038,3.235l-5.168-0.244
			c-0.378-0.018-0.734,0.164-0.94,0.479l-2.84,4.325l-4.99,1.365C9.776,9.493,9.493,9.777,9.394,10.14l-1.365,4.991l-4.324,2.841
			c-0.314,0.207-0.497,0.564-0.479,0.94l0.244,5.168l-3.235,4.038c-0.235,0.294-0.298,0.69-0.166,1.042L1.898,34l-1.829,4.84
			c-0.133,0.353-0.07,0.748,0.165,1.042l3.235,4.038l-0.244,5.169c-0.018,0.376,0.165,0.733,0.479,0.939l4.324,2.841l1.365,4.991
			c0.099,0.363,0.383,0.646,0.746,0.746l4.991,1.364l2.84,4.325c0.207,0.314,0.565,0.495,0.94,0.479l5.168-0.244l4.038,3.235
			c0.294,0.235,0.69,0.299,1.042,0.165l4.84-1.829l4.84,1.829C38.96,67.978,39.087,68,39.214,68c0.238,0,0.474-0.08,0.666-0.234
			l4.038-3.235l5.168,0.244c0.377,0.017,0.733-0.164,0.939-0.479l2.841-4.325l4.99-1.364c0.363-0.1,0.647-0.384,0.746-0.746
			l1.365-4.991l4.324-2.841c0.314-0.207,0.497-0.563,0.479-0.939l-0.243-5.169l3.234-4.038c0.235-0.294,0.299-0.689,0.165-1.042
			L66.098,34z M63.964,34.376l1.757,4.648l-3.107,3.878c-0.162,0.203-0.244,0.457-0.232,0.716l0.234,4.964l-4.153,2.729
			c-0.216,0.142-0.374,0.358-0.442,0.608l-1.311,4.793l-4.793,1.312c-0.25,0.068-0.467,0.226-0.608,0.442l-2.729,4.153l-4.963-0.234
			c-0.26-0.012-0.514,0.07-0.716,0.232l-3.878,3.107l-4.648-1.757c-0.122-0.046-0.249-0.068-0.376-0.068s-0.255,0.022-0.376,0.068
			l-4.648,1.757l-3.878-3.107c-0.202-0.162-0.457-0.244-0.715-0.232l-4.963,0.234l-2.728-4.153
			c-0.142-0.217-0.359-0.374-0.609-0.442l-4.793-1.312l-1.311-4.793c-0.068-0.25-0.226-0.466-0.442-0.608l-4.153-2.729l0.234-4.964
			c0.013-0.259-0.07-0.513-0.232-0.716l-3.107-3.878l1.757-4.648c0.091-0.243,0.091-0.51,0-0.753l-1.757-4.648l3.107-3.878
			c0.162-0.202,0.245-0.457,0.232-0.716l-0.234-4.963l4.153-2.728c0.217-0.143,0.374-0.359,0.442-0.609l1.311-4.793l4.793-1.311
			c0.25-0.068,0.466-0.226,0.609-0.442l2.728-4.153l4.963,0.234c0.258,0.012,0.513-0.071,0.715-0.233l3.878-3.107l4.648,1.757
			c0.243,0.092,0.51,0.092,0.753,0l4.648-1.757L42.9,5.382c0.202,0.162,0.457,0.245,0.716,0.233l4.963-0.234l2.729,4.153
			c0.142,0.216,0.358,0.374,0.608,0.442l4.793,1.311l1.311,4.793c0.068,0.25,0.226,0.466,0.442,0.609l4.153,2.728l-0.234,4.963
			c-0.012,0.259,0.07,0.514,0.232,0.716l3.107,3.878l-1.757,4.648C63.872,33.866,63.872,34.134,63.964,34.376z M51.68,16.268
			c0.256,0.256,0.51,0.521,0.755,0.787c0.21,0.229,0.496,0.345,0.784,0.345c0.257,0,0.516-0.093,0.72-0.28
			c0.434-0.397,0.462-1.071,0.064-1.504c-0.265-0.289-0.54-0.575-0.817-0.853s-0.564-0.552-0.853-0.817
			c-0.433-0.397-1.106-0.369-1.504,0.064s-0.369,1.106,0.063,1.504C51.159,15.758,51.424,16.012,51.68,16.268z M31.366,9.064
			c5.614-0.582,11.312,0.758,16.042,3.772c0.496,0.316,1.153,0.17,1.47-0.326s0.17-1.154-0.325-1.47
			c-5.135-3.271-11.316-4.725-17.406-4.095c-6.179,0.64-12.005,3.417-16.405,7.817c-4.843,4.844-7.663,11.277-7.94,18.117
			c-0.275,6.8,1.977,13.4,6.341,18.588c0.21,0.25,0.512,0.379,0.815,0.379c0.242,0,0.485-0.082,0.685-0.25
			c0.45-0.378,0.508-1.05,0.129-1.5c-4.021-4.779-6.097-10.863-5.843-17.13c0.255-6.303,2.854-12.233,7.317-16.697
			C20.303,12.212,25.672,9.653,31.366,9.064z M55.438,19.07c-0.496,0.316-0.642,0.974-0.326,1.47
			c3.014,4.731,4.354,10.428,3.772,16.042c-0.59,5.694-3.148,11.063-7.204,15.12c-4.464,4.464-10.394,7.063-16.696,7.318
			c-6.266,0.255-12.35-1.821-17.129-5.843c-0.45-0.379-1.122-0.321-1.5,0.129c-0.379,0.45-0.321,1.122,0.129,1.5
			c4.903,4.126,11.069,6.364,17.473,6.364c0.371,0,0.743-0.008,1.114-0.022c6.84-0.277,13.272-3.097,18.116-7.94
			c4.4-4.4,7.176-10.228,7.816-16.406c0.63-6.09-0.824-12.272-4.095-17.406C56.592,18.9,55.934,18.754,55.438,19.07z"/>
	</g>
</g>
</svg>
