<?xml version="1.0" encoding="utf-8"?>
<!-- Generator: Adobe Illustrator 14.0.0, SVG Export Plug-In . SVG Version: 6.00 Build 43363)  -->
<!DOCTYPE svg PUBLIC "-//W3C//DTD SVG 1.1//EN" "http://www.w3.org/Graphics/SVG/1.1/DTD/svg11.dtd">
<svg version="1.1" id="Layer_1" xmlns="http://www.w3.org/2000/svg" xmlns:xlink="http://www.w3.org/1999/xlink" x="0px" y="0px"
	 width="13.996px" height="15px" viewBox="0 0 13.996 15" enable-background="new 0 0 13.996 15" xml:space="preserve">
<path d="M13.783,13.662l-3.45-3.713c0.888-1.091,1.373-2.464,1.373-3.893C11.706,2.717,9.081,0,5.853,0S0,2.717,0,6.056
	s2.625,6.056,5.853,6.056c1.212,0,2.366-0.378,3.354-1.096l3.476,3.741C12.828,14.913,13.023,15,13.233,15
	c0.198,0,0.386-0.078,0.528-0.221C14.065,14.478,14.075,13.977,13.783,13.662z M5.853,1.58c2.386,0,4.326,2.008,4.326,4.476
	s-1.94,4.476-4.326,4.476c-2.385,0-4.326-2.008-4.326-4.476S3.468,1.58,5.853,1.58z"/>
</svg>
