<?xml version="1.0" encoding="utf-8"?>
<!-- Generator: Adobe Illustrator 14.0.0, SVG Export Plug-In . SVG Version: 6.00 Build 43363)  -->
<!DOCTYPE svg PUBLIC "-//W3C//DTD SVG 1.1//EN" "http://www.w3.org/Graphics/SVG/1.1/DTD/svg11.dtd">
<svg version="1.1" id="Layer_1" xmlns="http://www.w3.org/2000/svg" xmlns:xlink="http://www.w3.org/1999/xlink" x="0px" y="0px"
	 width="12.334px" height="12.017px" viewBox="0 0 12.334 12.017" enable-background="new 0 0 12.334 12.017" xml:space="preserve">
<path fill="none" d="M7.723,3.552C7.833,3.9,8.149,4.136,8.509,4.136h3.241c0.564,0,0.799,0.735,0.343,1.072L9.47,7.15
	c-0.289,0.216-0.41,0.597-0.3,0.943l1.001,3.144c0.175,0.546-0.438,1.001-0.896,0.663L6.653,9.959c-0.289-0.216-0.683-0.216-0.973,0
	L3.058,11.9c-0.456,0.338-1.07-0.117-0.895-0.663l1.001-3.144c0.111-0.347-0.01-0.728-0.301-0.943L0.241,5.208
	C-0.216,4.872,0.02,4.136,0.583,4.136h3.242c0.357,0,0.676-0.236,0.787-0.584L5.613,0.41c0.174-0.547,0.933-0.547,1.107,0
	L7.723,3.552L7.723,3.552z M7.723,3.552"/>
</svg>
