<?xml version="1.0" encoding="iso-8859-1"?>
<!-- Generator: Adobe Illustrator 19.0.0, SVG Export Plug-In . SVG Version: 6.00 Build 0)  -->
<svg version="1.1" id="Capa_1" xmlns="http://www.w3.org/2000/svg" xmlns:xlink="http://www.w3.org/1999/xlink" x="0px" y="0px"
	 viewBox="0 0 512 512" style="enable-background:new 0 0 512 512;" xml:space="preserve">
<g>
	<g>
		<path d="M156,212c-5.52,0-10,4.48-10,10s4.48,10,10,10s10-4.48,10-10S161.52,212,156,212z"/>
	</g>
</g>
<g>
	<g>
		<path d="M276,312h-10v-40h10c5.514,0,10,4.486,10,10c0,5.522,4.478,10,10,10c5.522,0,10-4.478,10-10c0-16.542-13.458-30-30-30h-10
			v-10c0-5.522-4.478-10-10-10c-5.522,0-10,4.478-10,10v10h-10c-16.542,0-30,13.458-30,30v20c0,16.542,13.458,30,30,30h10v40h-10
			c-5.514,0-10-4.486-10-10c0-5.522-4.478-10-10-10c-5.522,0-10,4.478-10,10c0,16.542,13.458,30,30,30h10v10c0,5.522,4.478,10,10,10
			c5.522,0,10-4.478,10-10v-10h10c16.542,0,30-13.458,30-30v-20C306,325.458,292.542,312,276,312z M246,312h-10
			c-5.514,0-10-4.486-10-10v-20c0-5.514,4.486-10,10-10h10V312z M286,362c0,5.514-4.486,10-10,10h-10v-40h10c5.514,0,10,4.486,10,10
			V362z"/>
	</g>
</g>
<g>
	<g>
		<path d="M395.827,193.36l22.966-27.727c11.329-11.719,11.21-30.478-0.366-42.07c-11.704-11.686-30.735-11.687-42.428,0.005
			c-0.199,0.2-0.391,0.408-0.573,0.624l-26.862,31.852c-16.475-9.205-34.188-15.863-52.563-19.805V80h30
			c10.681,0,20.724-4.162,28.281-11.719C361.838,60.724,366,50.681,366,40c0-22.056-17.944-40-40-40H186
			c-10.681,0-20.724,4.162-28.281,11.719S146,29.319,146,40c0,22.056,17.944,40,40,40h30v56.24
			c-18.376,3.943-36.089,10.6-52.564,19.804l-26.862-31.852c-0.183-0.216-0.374-0.424-0.573-0.624
			c-11.691-11.689-30.723-11.692-42.438,0.005c-11.566,11.583-11.686,30.342-0.356,42.061l22.966,27.727
			C83.751,228.516,66,273.844,66,322c0,104.767,85.233,190,190,190s190-85.233,190-190C446,273.844,428.249,228.516,395.827,193.36z
			 M390.395,137.466c3.913-3.65,10.076-3.569,13.89,0.24c3.9,3.905,3.903,10.255,0.005,14.152c-0.221,0.221-0.431,0.452-0.63,0.692
			l-22.183,26.781c-5.06-4.453-10.353-8.628-15.838-12.511L390.395,137.466z M186,60c-11.028,0-20-8.972-20-20
			c0-5.338,2.081-10.359,5.861-14.139C175.641,22.081,180.662,20,186,20h140c11.028,0,20,8.972,20,20
			c0,5.338-2.081,10.359-5.861,14.139C336.359,57.919,331.338,60,326,60h-40h-60H186z M276,80v52h-40V80H276z M108.341,152.55
			c-0.199-0.239-0.409-0.471-0.63-0.692c-3.898-3.897-3.896-10.247-0.005-14.143c3.822-3.815,9.983-3.901,13.899-0.25l24.756,29.355
			c-5.485,3.884-10.778,8.058-15.838,12.511L108.341,152.55z M256,492c-93.738,0-170-76.262-170-170
			c0-45.838,17.972-88.813,50.603-121.011c9.076-8.953,19.136-16.876,29.901-23.553C193.316,160.796,224.264,152,256,152
			c31.736,0,62.684,8.796,89.499,25.439c10.763,6.674,20.822,14.597,29.898,23.55C408.029,233.187,426,276.162,426,322
			C426,415.738,349.738,492,256,492z"/>
	</g>
</g>
<g>
	<g>
		<path d="M256,172c-23.691,0-46.388,5.398-67.46,16.044c-4.929,2.491-6.906,8.506-4.416,13.436
			c2.491,4.929,8.504,6.905,13.436,4.416C215.809,196.675,235.471,192,256,192c71.683,0,130,58.317,130,130s-58.317,130-130,130
			s-130-58.317-130-130c0-20.76,5.036-41.416,14.563-59.736c2.548-4.899,0.642-10.938-4.259-13.485
			c-4.897-2.548-10.938-0.641-13.485,4.259C111.815,274.195,106,298.042,106,322c0,82.71,67.29,150,150,150s150-67.29,150-150
			S338.71,172,256,172z"/>
	</g>
</g>
<g>
</g>
<g>
</g>
<g>
</g>
<g>
</g>
<g>
</g>
<g>
</g>
<g>
</g>
<g>
</g>
<g>
</g>
<g>
</g>
<g>
</g>
<g>
</g>
<g>
</g>
<g>
</g>
<g>
</g>
</svg>
