<?xml version="1.0" encoding="utf-8"?>
<!-- Generator: Adobe Illustrator 14.0.0, SVG Export Plug-In . SVG Version: 6.00 Build 43363)  -->
<!DOCTYPE svg PUBLIC "-//W3C//DTD SVG 1.1//EN" "http://www.w3.org/Graphics/SVG/1.1/DTD/svg11.dtd">
<svg version="1.1" id="Layer_1" xmlns="http://www.w3.org/2000/svg" xmlns:xlink="http://www.w3.org/1999/xlink" x="0px" y="0px"
	 width="24px" height="30px" viewBox="0 0 24 30" enable-background="new 0 0 24 30" xml:space="preserve">
<path d="M22.643,19.809c-0.959-1.135-2.269-1.778-3.737-1.778h-2.736v-2.088c0.61-0.702,1.118-1.497,1.516-2.293
	c0.78-0.131,1.565-0.935,1.973-2.083c0.499-1.404,0.276-2.664-0.532-3.116c0.34-1.819-0.16-3.992-1.348-5.628
	C16.459,1.002,14.419,0,12.031,0S7.603,1.002,6.283,2.822C5.101,4.454,4.596,6.618,4.929,8.434c-0.833,0.437-1.078,1.71-0.573,3.132
	c0.421,1.186,1.192,1.982,1.995,2.09c0.42,0.841,0.869,1.679,1.581,2.409v1.966h-2.77c-1.469,0-2.813,0.644-3.772,1.778
	C0.498,20.865,0,22.282,0,23.766v2.848c0,0.293,0.174,0.561,0.439,0.688C4.7,29.361,8.729,30,12.081,30
	c1.766,0,3.347-0.177,4.675-0.417c4.181-0.754,6.777-2.244,6.887-2.307C23.881,27.139,24,26.887,24,26.613v-2.848
	C24,22.282,23.536,20.865,22.643,19.809z M12.915,23.062c0,0.29-0.236,0.524-0.527,0.524h-0.775c-0.291,0-0.527-0.235-0.527-0.524
	v-0.77c0-0.289,0.236-0.524,0.527-0.524h0.775c0.291,0,0.527,0.235,0.527,0.524V23.062z M13.41,20.477
	c-0.292-0.156-0.625-0.224-0.979-0.224h-0.794c-0.354,0-0.688,0.067-0.979,0.224l-1.283-1.281c0.055-0.105,0.084-0.235,0.084-0.362
	V17.47c0.711,0.526,1.615,0.849,2.541,0.849c0.968,0,1.831-0.354,2.645-0.921v1.436c0,0.1,0.051,0.205,0.086,0.293L13.41,20.477z
	 M7.536,3.716c0.723-0.997,2.089-2.186,4.499-2.186c2.408,0,3.775,1.188,4.497,2.186c1.125,1.551,1.328,3.408,1.048,4.636
	c-5.043,1.226-7.459-3.479-7.559-3.679C9.874,4.375,9.55,4.206,9.218,4.254S8.624,4.557,8.568,4.885
	c-0.005,0.033-0.55,2.973-2.077,3.482C6.207,7.14,6.407,5.273,7.536,3.716z M5.655,9.942c2.131,0.167,3.401-1.658,3.958-3.117
	c0.337,0.421,0.763,0.887,1.28,1.332c1.49,1.278,3.209,1.931,5.052,1.931c0.654,0,1.738-0.083,2.419-0.249
	c0.046,0.206,0.06,0.654-0.141,1.218c-0.231,0.65-0.566,0.979-0.711,1.063c-0.164-0.058-0.344-0.06-0.51-0.003
	c-0.202,0.069-0.366,0.219-0.453,0.413c-0.879,1.964-2.589,4.258-4.516,4.258c-1.933,0-3.644-2.301-4.522-4.271
	c-0.09-0.202-0.263-0.355-0.475-0.421c-0.075-0.023-0.153-0.035-0.23-0.035c-0.099,0-0.197,0.019-0.29,0.056
	C6.371,12.03,6.04,11.703,5.81,11.057C5.632,10.556,5.623,10.167,5.655,9.942z M1.525,23.766c0-2.021,1.292-4.221,3.637-4.221h2.452
	l2.049,2.065C9.599,21.81,9.56,22.047,9.56,22.267v0.788c0,0.575,0.242,1.094,0.625,1.467l-0.684,3.812
	c-2.434-0.255-5.128-0.902-7.976-2.202V23.766L1.525,23.766z M11.065,28.441l0.588-3.341h0.76l0.59,3.345
	C12.385,28.468,11.737,28.47,11.065,28.441z M22.475,26.151c-0.814,0.419-3.027,1.396-6.075,1.937
	c-0.574,0.103-1.188,0.191-1.856,0.258l-0.698-3.824c0.382-0.373,0.596-0.892,0.596-1.467v-0.788c0-0.22-0.006-0.457-0.07-0.656
	l2.083-2.065h2.451c2.345,0,3.569,2.201,3.569,4.221L22.475,26.151L22.475,26.151z"/>
</svg>
